<svg xmlns="http://www.w3.org/2000/svg" xmlns:xlink="http://www.w3.org/1999/xlink" width="1080" zoomAndPan="magnify" viewBox="0 0 810 809.999993" height="1080" preserveAspectRatio="xMidYMid meet" version="1.0"><defs><clipPath id="dcb2c243a7"><path d="M 403 235 L 736.496094 235 L 736.496094 736.496094 L 403 736.496094 Z M 403 235 " clip-rule="nonzero"/></clipPath><clipPath id="70f519657c"><path d="M 73.496094 236 L 404 236 L 404 736.496094 L 73.496094 736.496094 Z M 73.496094 236 " clip-rule="nonzero"/></clipPath><clipPath id="8d6067d775"><path d="M 119 73.496094 L 691 73.496094 L 691 348 L 119 348 Z M 119 73.496094 " clip-rule="nonzero"/></clipPath></defs><g clip-path="url(#dcb2c243a7)"><path fill="#004aad" d="M 690.140625 235.894531 L 502.691406 346.355469 C 504.226562 348.90625 505.675781 351.515625 507.011719 354.191406 C 514.648438 369.492188 518.964844 386.734375 518.964844 404.996094 C 518.964844 467.941406 467.941406 518.960938 405 518.960938 C 404.847656 518.960938 404.695312 518.953125 404.539062 518.953125 C 404.222656 518.949219 403.914062 518.929688 403.597656 518.925781 L 403.597656 736.476562 C 403.910156 736.476562 404.226562 736.492188 404.539062 736.492188 C 404.691406 736.492188 404.84375 736.496094 405 736.496094 C 588.082031 736.496094 736.496094 588.082031 736.496094 404.996094 C 736.496094 352.09375 724.082031 302.097656 702.042969 257.730469 C 698.347656 250.285156 694.367188 243.007812 690.140625 235.894531 Z M 690.140625 235.894531 " fill-opacity="1" fill-rule="nonzero"/></g><g clip-path="url(#70f519657c)"><path fill="#ffa54f" d="M 291.03125 404.996094 C 291.03125 385.804688 295.792969 367.734375 304.175781 351.867188 C 305.015625 350.277344 305.902344 348.714844 306.816406 347.167969 L 119.359375 236.703125 C 116.582031 241.410156 113.917969 246.1875 111.367188 251.039062 C 87.195312 297.042969 73.496094 349.417969 73.496094 404.996094 C 73.496094 587.609375 221.15625 735.71875 403.59375 736.476562 L 403.59375 518.925781 C 341.300781 518.167969 291.03125 467.46875 291.03125 404.996094 Z M 291.03125 404.996094 " fill-opacity="1" fill-rule="nonzero"/></g><g clip-path="url(#8d6067d775)"><path fill="#5ac3b2" d="M 404.996094 291.03125 C 446.484375 291.03125 482.761719 313.214844 502.691406 346.355469 L 690.140625 235.894531 C 632.363281 138.667969 526.304688 73.496094 404.996094 73.496094 C 283.351562 73.496094 177.03125 139.027344 119.359375 236.703125 L 306.816406 347.167969 C 326.640625 313.578125 363.171875 291.03125 404.996094 291.03125 Z M 404.996094 291.03125 " fill-opacity="1" fill-rule="nonzero"/></g></svg>