<svg xmlns="http://www.w3.org/2000/svg" xmlns:xlink="http://www.w3.org/1999/xlink" width="1080" zoomAndPan="magnify" viewBox="0 0 810 809.999993" height="1080" preserveAspectRatio="xMidYMid meet" version="1.0"><defs><clipPath id="c3ab8ac902"><path d="M 271.734375 176.578125 L 728.648438 176.578125 L 728.648438 633.328125 L 271.734375 633.328125 Z M 271.734375 176.578125 " clip-rule="nonzero"/></clipPath><clipPath id="349b60254b"><path d="M 473.152344 377.824219 L 528.253906 377.824219 L 528.253906 432.925781 L 473.152344 432.925781 Z M 473.152344 377.824219 " clip-rule="nonzero"/></clipPath><clipPath id="18dd8280a0"><path d="M 500.703125 377.824219 C 485.488281 377.824219 473.152344 390.160156 473.152344 405.375 C 473.152344 420.589844 485.488281 432.925781 500.703125 432.925781 C 515.917969 432.925781 528.253906 420.589844 528.253906 405.375 C 528.253906 390.160156 515.917969 377.824219 500.703125 377.824219 Z M 500.703125 377.824219 " clip-rule="nonzero"/></clipPath><clipPath id="6db5288371"><path d="M 479.152344 383.824219 L 522.253906 383.824219 L 522.253906 426.925781 L 479.152344 426.925781 Z M 479.152344 383.824219 " clip-rule="nonzero"/></clipPath><clipPath id="f96de20581"><path d="M 500.703125 383.824219 C 488.800781 383.824219 479.152344 393.472656 479.152344 405.375 C 479.152344 417.277344 488.800781 426.925781 500.703125 426.925781 C 512.605469 426.925781 522.253906 417.277344 522.253906 405.375 C 522.253906 393.472656 512.605469 383.824219 500.703125 383.824219 Z M 500.703125 383.824219 " clip-rule="nonzero"/></clipPath></defs><path fill="#5ac3b2" d="M 576.773438 490.398438 C 574.5 490.398438 572.222656 489.535156 570.488281 487.796875 L 507.210938 424.519531 C 503.742188 421.050781 503.742188 415.425781 507.210938 411.953125 C 510.679688 408.484375 516.304688 408.484375 519.773438 411.953125 L 583.054688 475.234375 C 586.523438 478.703125 586.523438 484.328125 583.054688 487.796875 C 581.320312 489.535156 579.042969 490.398438 576.773438 490.398438 " fill-opacity="1" fill-rule="nonzero"/><g clip-path="url(#c3ab8ac902)"><path fill="#5ac3b2" d="M 500.242188 194.347656 C 384.097656 194.347656 289.605469 288.839844 289.605469 404.988281 C 289.605469 521.132812 384.097656 615.625 500.242188 615.625 C 616.386719 615.625 710.878906 521.132812 710.878906 404.988281 C 710.878906 288.839844 616.386719 194.347656 500.242188 194.347656 Z M 500.242188 633.394531 C 469.410156 633.394531 439.5 627.355469 411.335938 615.441406 C 384.132812 603.9375 359.707031 587.46875 338.734375 566.496094 C 317.761719 545.519531 301.292969 521.09375 289.789062 493.894531 C 277.875 465.730469 271.835938 435.820312 271.835938 404.988281 C 271.835938 374.15625 277.875 344.242188 289.789062 316.078125 C 301.292969 288.878906 317.761719 264.453125 338.734375 243.476562 C 359.707031 222.503906 384.132812 206.039062 411.335938 194.53125 C 439.5 182.621094 469.410156 176.578125 500.242188 176.578125 C 531.074219 176.578125 560.984375 182.621094 589.148438 194.53125 C 616.347656 206.039062 640.777344 222.503906 661.75 243.476562 C 682.722656 264.453125 699.191406 288.878906 710.699219 316.078125 C 722.605469 344.242188 728.648438 374.15625 728.648438 404.988281 C 728.648438 435.820312 722.605469 465.730469 710.699219 493.894531 C 699.191406 521.09375 682.722656 545.519531 661.75 566.496094 C 640.777344 587.46875 616.347656 603.9375 589.148438 615.441406 C 560.984375 627.355469 531.074219 633.394531 500.242188 633.394531 " fill-opacity="1" fill-rule="nonzero"/></g><path fill="#5ac3b2" d="M 340.53125 263.261719 L 209.46875 263.261719 C 204.5625 263.261719 200.585938 259.28125 200.585938 254.375 C 200.585938 249.46875 204.5625 245.492188 209.46875 245.492188 L 340.53125 245.492188 C 345.441406 245.492188 349.417969 249.46875 349.417969 254.375 C 349.417969 259.28125 345.441406 263.261719 340.53125 263.261719 " fill-opacity="1" fill-rule="nonzero"/><path fill="#5ac3b2" d="M 293.980469 338.5625 L 152.367188 338.5625 C 147.457031 338.5625 143.480469 334.585938 143.480469 329.679688 C 143.480469 324.773438 147.457031 320.792969 152.367188 320.792969 L 293.980469 320.792969 C 298.886719 320.792969 302.863281 324.773438 302.863281 329.679688 C 302.863281 334.585938 298.886719 338.5625 293.980469 338.5625 " fill-opacity="1" fill-rule="nonzero"/><path fill="#5ac3b2" d="M 280.71875 413.871094 L 166.167969 413.871094 C 161.261719 413.871094 157.285156 409.894531 157.285156 404.984375 C 157.285156 400.078125 161.261719 396.101562 166.167969 396.101562 L 280.71875 396.101562 C 285.625 396.101562 289.605469 400.078125 289.605469 404.984375 C 289.605469 409.894531 285.625 413.871094 280.71875 413.871094 " fill-opacity="1" fill-rule="nonzero"/><path fill="#5ac3b2" d="M 121.609375 413.871094 L 90.234375 413.871094 C 85.328125 413.871094 81.351562 409.894531 81.351562 404.988281 C 81.351562 400.078125 85.328125 396.101562 90.234375 396.101562 L 121.609375 396.101562 C 126.515625 396.101562 130.496094 400.078125 130.496094 404.988281 C 130.496094 409.894531 126.515625 413.871094 121.609375 413.871094 " fill-opacity="1" fill-rule="nonzero"/><path fill="#5ac3b2" d="M 293.976562 489.171875 L 152.367188 489.171875 C 147.457031 489.171875 143.480469 485.195312 143.480469 480.289062 C 143.480469 475.382812 147.457031 471.402344 152.367188 471.402344 L 293.976562 471.402344 C 298.882812 471.402344 302.859375 475.382812 302.859375 480.289062 C 302.859375 485.195312 298.882812 489.171875 293.976562 489.171875 " fill-opacity="1" fill-rule="nonzero"/><path fill="#5ac3b2" d="M 340.539062 564.484375 L 209.46875 564.484375 C 204.5625 564.484375 200.585938 560.507812 200.585938 555.601562 C 200.585938 550.695312 204.5625 546.714844 209.46875 546.714844 L 340.539062 546.714844 C 345.445312 546.714844 349.421875 550.695312 349.421875 555.601562 C 349.421875 560.507812 345.445312 564.484375 340.539062 564.484375 " fill-opacity="1" fill-rule="nonzero"/><path fill="#5ac3b2" d="M 500.242188 233.234375 C 405.539062 233.234375 328.492188 310.28125 328.492188 404.988281 C 328.492188 499.691406 405.539062 576.738281 500.242188 576.738281 C 594.945312 576.738281 671.992188 499.691406 671.992188 404.988281 C 671.992188 310.28125 594.945312 233.234375 500.242188 233.234375 Z M 500.242188 594.507812 C 474.660156 594.507812 449.839844 589.492188 426.46875 579.609375 C 403.902344 570.0625 383.632812 556.398438 366.230469 539 C 348.828125 521.597656 335.164062 501.328125 325.621094 478.761719 C 315.734375 455.390625 310.722656 430.566406 310.722656 404.988281 C 310.722656 379.40625 315.734375 354.585938 325.621094 331.214844 C 335.164062 308.644531 348.828125 288.378906 366.230469 270.976562 C 383.632812 253.574219 403.902344 239.910156 426.46875 230.363281 C 449.839844 220.480469 474.660156 215.464844 500.242188 215.464844 C 525.824219 215.464844 550.640625 220.480469 574.015625 230.363281 C 596.582031 239.910156 616.851562 253.574219 634.253906 270.976562 C 651.65625 288.378906 665.320312 308.644531 674.863281 331.214844 C 684.75 354.585938 689.761719 379.40625 689.761719 404.988281 C 689.761719 430.566406 684.75 455.390625 674.863281 478.761719 C 665.320312 501.328125 651.65625 521.597656 634.253906 539 C 616.851562 556.398438 596.582031 570.0625 574.015625 579.609375 C 550.640625 589.492188 525.824219 594.507812 500.242188 594.507812 " fill-opacity="1" fill-rule="nonzero"/><path fill="#5ac3b2" d="M 500.242188 395.40625 C 494.960938 395.40625 490.664062 399.707031 490.664062 404.988281 C 490.664062 410.269531 494.960938 414.566406 500.242188 414.566406 C 505.527344 414.566406 509.820312 410.269531 509.820312 404.988281 C 509.820312 399.707031 505.527344 395.40625 500.242188 395.40625 Z M 500.242188 432.335938 C 485.160156 432.335938 472.894531 420.066406 472.894531 404.988281 C 472.894531 389.90625 485.160156 377.636719 500.242188 377.636719 C 515.324219 377.636719 527.589844 389.90625 527.589844 404.988281 C 527.589844 420.066406 515.324219 432.335938 500.242188 432.335938 " fill-opacity="1" fill-rule="nonzero"/><path fill="#5ac3b2" d="M 500.242188 395.570312 C 495.335938 395.570312 491.359375 391.59375 491.359375 386.683594 L 491.359375 316.796875 C 491.359375 311.890625 495.335938 307.914062 500.242188 307.914062 C 505.148438 307.914062 509.125 311.890625 509.125 316.796875 L 509.125 386.683594 C 509.125 391.59375 505.148438 395.570312 500.242188 395.570312 " fill-opacity="1" fill-rule="nonzero"/><path fill="#5ac3b2" d="M 500.242188 260.65625 C 495.335938 260.65625 491.359375 256.675781 491.359375 251.769531 L 491.359375 224.351562 C 491.359375 219.445312 495.335938 215.464844 500.242188 215.464844 C 505.148438 215.464844 509.125 219.445312 509.125 224.351562 L 509.125 251.769531 C 509.125 256.675781 505.148438 260.65625 500.242188 260.65625 " fill-opacity="1" fill-rule="nonzero"/><path fill="#5ac3b2" d="M 391.902344 305.53125 C 389.628906 305.53125 387.355469 304.664062 385.621094 302.929688 L 366.230469 283.539062 C 362.761719 280.070312 362.761719 274.445312 366.230469 270.976562 C 369.703125 267.503906 375.328125 267.503906 378.796875 270.976562 L 398.183594 290.363281 C 401.652344 293.832031 401.652344 299.457031 398.183594 302.929688 C 396.449219 304.664062 394.175781 305.53125 391.902344 305.53125 " fill-opacity="1" fill-rule="nonzero"/><path fill="#5ac3b2" d="M 347.027344 413.871094 L 319.609375 413.871094 C 314.699219 413.871094 310.722656 409.894531 310.722656 404.988281 C 310.722656 400.082031 314.699219 396.101562 319.609375 396.101562 L 347.027344 396.101562 C 351.933594 396.101562 355.910156 400.082031 355.910156 404.988281 C 355.910156 409.894531 351.933594 413.871094 347.027344 413.871094 " fill-opacity="1" fill-rule="nonzero"/><path fill="#5ac3b2" d="M 372.515625 541.597656 C 370.242188 541.597656 367.964844 540.730469 366.230469 539 C 362.761719 535.527344 362.761719 529.902344 366.230469 526.433594 L 385.621094 507.042969 C 389.089844 503.574219 394.714844 503.574219 398.183594 507.042969 C 401.652344 510.515625 401.652344 516.140625 398.183594 519.609375 L 378.796875 539 C 377.0625 540.730469 374.789062 541.597656 372.515625 541.597656 " fill-opacity="1" fill-rule="nonzero"/><path fill="#5ac3b2" d="M 500.242188 594.507812 C 495.335938 594.507812 491.359375 590.527344 491.359375 585.621094 L 491.359375 558.203125 C 491.359375 553.296875 495.335938 549.320312 500.242188 549.320312 C 505.148438 549.320312 509.125 553.296875 509.125 558.203125 L 509.125 585.621094 C 509.125 590.527344 505.148438 594.507812 500.242188 594.507812 " fill-opacity="1" fill-rule="nonzero"/><path fill="#5ac3b2" d="M 627.972656 541.597656 C 625.699219 541.597656 623.421875 540.730469 621.6875 539 L 602.300781 519.609375 C 598.828125 516.140625 598.828125 510.515625 602.300781 507.042969 C 605.769531 503.574219 611.394531 503.574219 614.863281 507.042969 L 634.253906 526.433594 C 637.722656 529.902344 637.722656 535.527344 634.253906 539 C 632.519531 540.730469 630.242188 541.597656 627.972656 541.597656 " fill-opacity="1" fill-rule="nonzero"/><path fill="#5ac3b2" d="M 680.875 413.871094 L 653.457031 413.871094 C 648.554688 413.871094 644.570312 409.894531 644.570312 404.988281 C 644.570312 400.082031 648.554688 396.101562 653.457031 396.101562 L 680.875 396.101562 C 685.785156 396.101562 689.761719 400.082031 689.761719 404.988281 C 689.761719 409.894531 685.785156 413.871094 680.875 413.871094 " fill-opacity="1" fill-rule="nonzero"/><path fill="#5ac3b2" d="M 608.582031 305.53125 C 606.308594 305.53125 604.035156 304.664062 602.300781 302.929688 C 598.828125 299.457031 598.828125 293.832031 602.300781 290.363281 L 621.6875 270.976562 C 625.15625 267.503906 630.785156 267.503906 634.253906 270.976562 C 637.722656 274.445312 637.722656 280.070312 634.253906 283.539062 L 614.863281 302.929688 C 613.128906 304.664062 610.855469 305.53125 608.582031 305.53125 " fill-opacity="1" fill-rule="nonzero"/><g clip-path="url(#349b60254b)"><g clip-path="url(#18dd8280a0)"><path fill="#5ac3b2" d="M 473.152344 377.824219 L 528.253906 377.824219 L 528.253906 432.925781 L 473.152344 432.925781 Z M 473.152344 377.824219 " fill-opacity="1" fill-rule="nonzero"/></g></g><g clip-path="url(#6db5288371)"><g clip-path="url(#f96de20581)"><path fill="#ffa54f" d="M 479.152344 383.824219 L 522.253906 383.824219 L 522.253906 426.925781 L 479.152344 426.925781 Z M 479.152344 383.824219 " fill-opacity="1" fill-rule="nonzero"/></g></g></svg>