<svg xmlns="http://www.w3.org/2000/svg" xmlns:xlink="http://www.w3.org/1999/xlink" width="1080" zoomAndPan="magnify" viewBox="0 0 810 809.999993" height="1080" preserveAspectRatio="xMidYMid meet" version="1.0"><defs><filter x="0%" y="0%" width="100%" height="100%" id="614f90ffd0"><feColorMatrix values="0 0 0 0 1 0 0 0 0 1 0 0 0 0 1 0 0 0 1 0" color-interpolation-filters="sRGB"/></filter><clipPath id="55353acf4a"><path d="M 101 225 L 333 225 L 333 480 L 101 480 Z M 101 225 " clip-rule="nonzero"/></clipPath><clipPath id="8c596ba57a"><path d="M 218.28125 171.480469 L 384.546875 279.609375 L 240.546875 501.035156 L 74.28125 392.90625 Z M 218.28125 171.480469 " clip-rule="nonzero"/></clipPath><clipPath id="3860a5975f"><path d="M 218.28125 171.480469 L 384.546875 279.609375 L 240.546875 501.035156 L 74.28125 392.90625 Z M 218.28125 171.480469 " clip-rule="nonzero"/></clipPath><clipPath id="ea7fda63f2"><path d="M 121 135.472656 L 696 135.472656 L 696 674.078125 L 121 674.078125 Z M 121 135.472656 " clip-rule="nonzero"/></clipPath><mask id="bcc52337ce"><g filter="url(#614f90ffd0)"><rect x="-81" width="972" fill="#000000" y="-80.999999" height="971.999992" fill-opacity="0.15"/></g></mask><clipPath id="cb4f9c3ac8"><path d="M 0.078125 0.28125 L 82 0.28125 L 82 228 L 0.078125 228 Z M 0.078125 0.28125 " clip-rule="nonzero"/></clipPath><clipPath id="ddf3fd501a"><rect x="0" width="83" y="0" height="229"/></clipPath><mask id="84389a15f2"><g filter="url(#614f90ffd0)"><rect x="-81" width="972" fill="#000000" y="-80.999999" height="971.999992" fill-opacity="0.28"/></g></mask><clipPath id="77df95c65e"><rect x="0" width="50" y="0" height="215"/></clipPath><mask id="e0062b2839"><g filter="url(#614f90ffd0)"><rect x="-81" width="972" fill="#000000" y="-80.999999" height="971.999992" fill-opacity="0.15"/></g></mask><clipPath id="e574e419a8"><path d="M 0.238281 1 L 280 1 L 280 89 L 0.238281 89 Z M 0.238281 1 " clip-rule="nonzero"/></clipPath><clipPath id="6bf531dfad"><rect x="0" width="281" y="0" height="90"/></clipPath><mask id="2f6fed4532"><g filter="url(#614f90ffd0)"><rect x="-81" width="972" fill="#000000" y="-80.999999" height="971.999992" fill-opacity="0.15"/></g></mask><clipPath id="7b1425f4e4"><path d="M 0.121094 0.800781 L 185.878906 0.800781 L 185.878906 65.359375 L 0.121094 65.359375 Z M 0.121094 0.800781 " clip-rule="nonzero"/></clipPath><clipPath id="5ee04d2355"><rect x="0" width="186" y="0" height="66"/></clipPath><mask id="8f358fe81e"><g filter="url(#614f90ffd0)"><rect x="-81" width="972" fill="#000000" y="-80.999999" height="971.999992" fill-opacity="0.15"/></g></mask><clipPath id="e62eef53db"><path d="M 0.078125 0.761719 L 54 0.761719 L 54 109.71875 L 0.078125 109.71875 Z M 0.078125 0.761719 " clip-rule="nonzero"/></clipPath><clipPath id="0f88aed54c"><rect x="0" width="55" y="0" height="110"/></clipPath><clipPath id="eb4efc2ac6"><path d="M 613 334 L 735.699219 334 L 735.699219 464.585938 L 613 464.585938 Z M 613 334 " clip-rule="nonzero"/></clipPath><clipPath id="c295eef247"><path d="M 479.085938 208 L 707 208 L 707 436 L 479.085938 436 Z M 479.085938 208 " clip-rule="nonzero"/></clipPath></defs><g clip-path="url(#55353acf4a)"><g clip-path="url(#8c596ba57a)"><g clip-path="url(#3860a5975f)"><path fill="#5ac3b2" d="M 287.339844 225.8125 C 300.507812 226.507812 312.191406 232.53125 320.410156 241.675781 C 328.636719 250.800781 333.386719 263.0625 332.679688 276.246094 L 328.738281 350.675781 C 328.042969 363.847656 322.015625 375.527344 312.875 383.746094 C 303.75 391.972656 291.488281 396.722656 278.300781 396.015625 C 265.132812 395.320312 253.449219 389.292969 245.222656 380.167969 C 237.007812 371.023438 232.257812 358.765625 232.953125 345.59375 L 236.917969 271.160156 C 237.617188 257.988281 243.625 246.296875 252.765625 238.082031 C 261.910156 229.863281 274.167969 225.113281 287.339844 225.8125 Z M 246.96875 394.453125 C 257.710938 401.441406 264.609375 412.128906 267.054688 423.746094 C 269.53125 435.359375 267.5625 447.925781 260.574219 458.667969 C 253.589844 469.410156 242.898438 476.308594 231.28125 478.757812 C 219.671875 481.230469 207.101562 479.261719 196.359375 472.273438 C 185.617188 465.289062 178.722656 454.601562 176.273438 442.980469 C 173.800781 431.371094 175.769531 418.800781 182.753906 408.058594 C 189.742188 397.316406 200.429688 390.421875 212.046875 387.972656 C 223.660156 385.5 236.226562 387.46875 246.96875 394.453125 Z M 193.347656 409.398438 L 255.054688 449.527344 C 258.757812 441.933594 259.621094 433.523438 257.957031 425.675781 C 255.992188 416.394531 250.488281 407.847656 241.894531 402.257812 C 233.300781 396.667969 223.257812 395.105469 213.976562 397.074219 C 206.128906 398.734375 198.804688 402.941406 193.347656 409.398438 Z M 249.980469 457.332031 L 188.273438 417.203125 C 184.585938 424.808594 183.710938 433.207031 185.371094 441.054688 C 187.339844 450.335938 192.839844 458.882812 201.4375 464.472656 C 210.03125 470.058594 220.074219 471.625 229.355469 469.65625 C 237.203125 467.992188 244.539062 463.796875 249.980469 457.332031 Z M 235.039062 411.691406 C 233.523438 410.707031 233.097656 408.699219 234.082031 407.183594 C 235.058594 405.679688 237.078125 405.242188 238.59375 406.226562 C 244.203125 409.875 248.332031 414.964844 250.828125 420.703125 C 253.382812 426.589844 254.179688 433.175781 253.046875 439.585938 C 252.726562 441.359375 251.039062 442.53125 249.269531 442.214844 C 247.515625 441.902344 246.339844 440.21875 246.660156 438.449219 C 247.5625 433.324219 246.917969 428.027344 244.851562 423.289062 C 242.871094 418.695312 239.558594 414.632812 235.039062 411.691406 Z M 179.769531 364.847656 L 145.199219 326.402344 L 122.933594 346.429688 C 112.375 355.929688 111.5 372.378906 121 382.9375 C 130.480469 393.488281 146.929688 394.359375 157.488281 384.863281 Z M 151.523438 378.242188 C 152.582031 377.265625 154.253906 377.363281 155.226562 378.421875 C 156.191406 379.5 156.09375 381.167969 155.015625 382.132812 C 150.484375 386.199219 144.710938 388.0625 139.035156 387.765625 C 133.371094 387.453125 127.8125 385.007812 123.730469 380.464844 C 122.765625 379.390625 122.851562 377.734375 123.929688 376.773438 C 125.003906 375.808594 126.65625 375.894531 127.621094 376.972656 C 130.734375 380.410156 134.972656 382.292969 139.316406 382.53125 C 143.640625 382.757812 148.066406 381.34375 151.523438 378.242188 Z M 213.429688 299.808594 C 220.511719 307.695312 223.746094 317.757812 223.21875 327.621094 C 222.695312 337.484375 218.425781 347.160156 210.527344 354.253906 L 165.976562 394.316406 C 158.105469 401.40625 148.027344 404.628906 138.164062 404.105469 C 128.300781 403.578125 118.640625 399.320312 111.546875 391.425781 C 104.441406 383.542969 101.230469 373.476562 101.757812 363.613281 C 102.28125 353.75 106.542969 344.085938 114.4375 336.992188 L 158.992188 296.933594 C 166.871094 289.828125 176.9375 286.621094 186.8125 287.128906 C 196.675781 287.65625 206.328125 291.929688 213.429688 299.808594 Z M 215.742188 327.230469 C 216.167969 319.28125 213.578125 311.167969 207.859375 304.816406 C 202.140625 298.46875 194.355469 295.023438 186.40625 294.597656 C 178.445312 294.1875 170.332031 296.777344 163.992188 302.480469 L 119.429688 342.554688 C 113.09375 348.257812 109.664062 356.054688 109.238281 364.003906 C 108.800781 371.96875 111.402344 380.066406 117.109375 386.429688 C 122.808594 392.769531 130.621094 396.207031 138.570312 396.636719 C 146.519531 397.0625 154.621094 394.460938 160.984375 388.753906 L 205.535156 348.695312 C 211.886719 342.976562 215.3125 335.179688 215.742188 327.230469 Z M 314.929688 312.628906 L 250.71875 309.222656 L 248.753906 346.429688 C 247.804688 364.066406 261.503906 379.292969 279.140625 380.242188 C 296.789062 381.175781 312.015625 367.472656 312.949219 349.828125 Z M 301.859375 349.246094 C 301.953125 347.441406 303.503906 346.066406 305.28125 346.167969 C 307.085938 346.261719 308.472656 347.792969 308.378906 349.597656 C 307.96875 357.175781 304.511719 363.875 299.257812 368.597656 C 294.007812 373.320312 286.960938 376.066406 279.382812 375.65625 C 277.59375 375.570312 276.21875 374.023438 276.300781 372.234375 C 276.394531 370.429688 277.941406 369.054688 279.730469 369.136719 C 285.503906 369.453125 290.882812 367.375 294.894531 363.757812 C 298.910156 360.144531 301.558594 355.03125 301.859375 349.246094 Z M 313.484375 247.894531 C 306.875 240.539062 297.449219 235.667969 286.84375 235.109375 C 276.238281 234.550781 266.355469 238.375 258.988281 245.003906 C 251.621094 251.632812 246.777344 261.046875 246.21875 271.65625 L 242.253906 346.089844 C 241.695312 356.695312 245.527344 366.5625 252.15625 373.929688 C 258.785156 381.300781 268.191406 386.15625 278.796875 386.714844 C 289.402344 387.273438 299.285156 383.449219 306.652344 376.824219 C 314.023438 370.195312 318.878906 360.789062 319.4375 350.179688 L 323.378906 275.75 C 323.9375 265.144531 320.113281 255.261719 313.484375 247.894531 Z M 313.484375 247.894531 " fill-opacity="1" fill-rule="nonzero"/></g></g></g><g clip-path="url(#ea7fda63f2)"><path fill="#ffffff" d="M 438.359375 674.457031 C 432.378906 674.515625 426.554688 673.59375 420.882812 671.699219 C 407.808594 667.167969 398.582031 659.703125 393.398438 649.46875 C 387.824219 648.351562 382.570312 646.378906 377.640625 643.546875 C 375.203125 642.136719 372.933594 640.503906 370.824219 638.640625 C 368.714844 636.777344 366.808594 634.726562 365.113281 632.480469 C 363.414062 630.238281 361.953125 627.847656 360.734375 625.3125 C 359.515625 622.777344 358.558594 620.144531 357.867188 617.417969 C 351.828125 594.691406 362.464844 566.695312 381.796875 552.730469 L 382.625 534.441406 C 381.65625 534.203125 380.699219 533.921875 379.753906 533.605469 C 378.808594 533.285156 377.878906 532.929688 376.964844 532.535156 C 376.050781 532.140625 375.152344 531.707031 374.273438 531.234375 C 373.394531 530.765625 372.539062 530.261719 371.699219 529.71875 C 370.863281 529.179688 370.050781 528.601562 369.261719 527.996094 C 368.472656 527.386719 367.710938 526.746094 366.972656 526.074219 C 366.238281 525.402344 365.53125 524.699219 364.851562 523.96875 C 364.175781 523.238281 363.527344 522.480469 362.914062 521.695312 C 362.296875 520.910156 361.714844 520.101562 361.167969 519.269531 C 360.621094 518.4375 360.109375 517.582031 359.632812 516.707031 C 359.152344 515.832031 358.714844 514.941406 358.3125 514.027344 C 357.910156 513.117188 357.542969 512.191406 357.21875 511.246094 C 356.890625 510.304688 356.605469 509.351562 356.359375 508.386719 C 356.113281 507.421875 355.90625 506.445312 355.738281 505.464844 C 355.574219 504.480469 355.449219 503.492188 355.367188 502.5 C 355.28125 501.503906 355.238281 500.511719 355.238281 499.515625 L 355.238281 271.347656 C 355.242188 269.761719 355.355469 268.183594 355.566406 266.609375 C 355.78125 265.039062 356.097656 263.488281 356.515625 261.957031 C 356.933594 260.425781 357.453125 258.929688 358.066406 257.464844 C 358.679688 256.003906 359.390625 254.585938 360.191406 253.21875 C 360.992188 251.847656 361.878906 250.535156 362.855469 249.285156 C 363.828125 248.03125 364.878906 246.847656 366.007812 245.734375 C 367.140625 244.617188 368.335938 243.582031 369.601562 242.625 C 370.867188 241.667969 372.191406 240.800781 373.570312 240.015625 L 367.292969 220.042969 C 359.628906 202.191406 333.847656 193.140625 290.542969 193.140625 C 270.882812 193.140625 250.855469 194.933594 234.765625 196.382812 C 222.765625 197.457031 212.433594 198.398438 204.828125 198.398438 C 195.507812 198.398438 192.480469 203.144531 186.1875 216.707031 C 180.289062 229.433594 172.210938 246.859375 150.082031 247.535156 L 148.96875 247.535156 C 136.269531 247.535156 126.742188 241.195312 122.910156 230.152344 C 120.34375 222.742188 119.246094 209.765625 128.941406 189.96875 C 135.617188 176.339844 145.390625 164.070312 155.769531 156.304688 C 169.035156 146.339844 202.605469 140.210938 255.546875 137.910156 C 267.730469 137.398438 280.46875 137.144531 293.410156 137.144531 C 321.941406 137.144531 347.941406 138.445312 362.957031 140.636719 C 382.746094 143.519531 399.230469 154.847656 410.953125 173.519531 C 418.246094 160.878906 428.785156 148.363281 443.472656 142.402344 C 454.898438 137.757812 478.46875 135.503906 515.519531 135.503906 C 523.996094 135.503906 533.300781 135.625 543.109375 135.863281 C 581.226562 136.835938 622.753906 139.625 636.203125 141.542969 C 650.207031 143.542969 665.429688 152.3125 677.96875 165.601562 C 682.679688 170.582031 697.894531 188.113281 695.742188 204.109375 C 694.554688 213.023438 688.84375 219.796875 680.414062 222.242188 C 678.113281 222.902344 675.769531 223.222656 673.375 223.207031 C 660.53125 223.207031 644.910156 214.515625 633.582031 201.066406 C 625.917969 191.984375 608.289062 189.820312 602.15625 189.761719 L 601.851562 189.761719 C 601.566406 189.761719 571.453125 188.992188 540.160156 188.992188 C 521.996094 188.992188 507.117188 189.238281 495.949219 189.761719 C 472.628906 190.789062 466.632812 197.90625 465.746094 199.164062 C 465.683594 199.339844 465.613281 199.503906 465.554688 199.65625 L 449.402344 240.683594 C 450.710938 241.484375 451.960938 242.363281 453.152344 243.324219 C 454.347656 244.28125 455.472656 245.3125 456.535156 246.417969 C 457.59375 247.523438 458.582031 248.691406 459.492188 249.921875 C 460.40625 251.152344 461.234375 252.433594 461.980469 253.769531 C 462.726562 255.109375 463.386719 256.488281 463.957031 257.90625 C 464.527344 259.328125 465.003906 260.78125 465.386719 262.261719 C 465.773438 263.746094 466.058594 265.246094 466.253906 266.765625 C 466.445312 268.285156 466.539062 269.808594 466.535156 271.339844 L 466.535156 499.515625 C 466.539062 500.496094 466.5 501.480469 466.421875 502.460938 C 466.34375 503.441406 466.226562 504.417969 466.066406 505.386719 C 465.910156 506.359375 465.710938 507.320312 465.472656 508.277344 C 465.234375 509.230469 464.960938 510.175781 464.644531 511.105469 C 464.328125 512.039062 463.976562 512.957031 463.585938 513.859375 C 463.195312 514.761719 462.769531 515.644531 462.304688 516.515625 C 461.839844 517.382812 461.34375 518.230469 460.808594 519.054688 C 460.277344 519.882812 459.710938 520.683594 459.109375 521.464844 C 458.511719 522.246094 457.878906 523 457.21875 523.726562 C 456.554688 524.457031 455.867188 525.15625 455.148438 525.828125 C 454.429688 526.496094 453.683594 527.136719 452.910156 527.746094 C 452.140625 528.359375 451.34375 528.933594 450.523438 529.480469 C 449.703125 530.023438 448.863281 530.535156 448.003906 531.007812 C 447.140625 531.484375 446.261719 531.921875 445.363281 532.324219 C 444.464844 532.726562 443.554688 533.09375 442.625 533.421875 C 441.699219 533.75 440.757812 534.039062 439.808594 534.289062 L 439.808594 555.808594 C 443.203125 557.753906 446.335938 560.054688 449.210938 562.710938 C 452.082031 565.371094 454.617188 568.316406 456.816406 571.554688 C 463.996094 581.863281 467.890625 594.417969 467.484375 606.042969 C 467.222656 613.761719 464.097656 635.933594 438.113281 645.953125 L 438.421875 645.953125 C 451.632812 645.953125 472.183594 638.289062 486.0625 621.332031 C 495.222656 610.175781 499.238281 597.574219 498.011719 583.953125 C 496.917969 571.691406 491.878906 560.90625 487.796875 553.96875 C 479.132812 539.179688 479.179688 521.25 487.902344 507.179688 C 495.117188 495.542969 507.179688 488.59375 520.171875 488.59375 C 521.011719 488.59375 521.863281 488.59375 522.707031 488.683594 C 534.160156 489.449219 555.957031 496.585938 573.222656 535.4375 C 578.6875 547.699219 584.136719 552.101562 587.152344 552.101562 L 587.480469 552.101562 C 591.957031 551.664062 600.15625 543.386719 603.292969 529.558594 C 608.304688 507.46875 596.195312 497.445312 590.761719 494.15625 C 580.34375 487.855469 563.4375 485.726562 547.074219 483.71875 C 523.023438 480.734375 500.320312 477.90625 488.054688 461.851562 C 481.757812 453.597656 479.457031 443.195312 481.21875 430.953125 C 481.34375 430.113281 481.542969 429.292969 481.8125 428.488281 C 482.085938 427.683594 482.425781 426.90625 482.832031 426.164062 C 483.242188 425.417969 483.714844 424.714844 484.246094 424.054688 C 484.78125 423.394531 485.371094 422.785156 486.011719 422.230469 C 486.652344 421.671875 487.339844 421.179688 488.070312 420.746094 C 488.800781 420.308594 489.5625 419.945312 490.355469 419.644531 C 491.152344 419.347656 491.96875 419.121094 492.800781 418.964844 C 493.636719 418.8125 494.480469 418.734375 495.328125 418.730469 C 495.839844 418.730469 496.347656 418.757812 496.855469 418.8125 C 497.363281 418.867188 497.867188 418.945312 498.363281 419.054688 C 498.863281 419.164062 499.355469 419.296875 499.835938 419.457031 C 500.320312 419.621094 500.796875 419.804688 501.261719 420.015625 C 501.722656 420.230469 502.175781 420.464844 502.613281 420.726562 C 503.050781 420.984375 503.476562 421.269531 503.882812 421.574219 C 504.292969 421.878906 504.683594 422.207031 505.058594 422.554688 C 505.429688 422.902344 505.785156 423.269531 506.117188 423.652344 C 506.453125 424.039062 506.765625 424.441406 507.054688 424.859375 C 507.347656 425.277344 507.613281 425.710938 507.859375 426.160156 C 508.101562 426.609375 508.324219 427.066406 508.515625 427.539062 C 508.710938 428.007812 508.882812 428.488281 509.027344 428.980469 C 509.167969 429.46875 509.285156 429.964844 509.375 430.464844 C 509.464844 430.96875 509.53125 431.472656 509.566406 431.984375 C 509.601562 432.492188 509.609375 433 509.59375 433.511719 C 509.574219 434.019531 509.527344 434.527344 509.457031 435.03125 C 508.503906 441.625 510.183594 443.824219 510.734375 444.542969 C 515.71875 451.082031 534.242188 453.382812 550.589844 455.414062 C 569.914062 457.8125 589.886719 460.292969 605.515625 469.746094 C 631.835938 485.65625 635.988281 514.335938 631.105469 535.867188 C 625.464844 560.722656 609.046875 578.648438 590.253906 580.488281 C 589.167969 580.597656 588.085938 580.652344 587.019531 580.652344 C 570.925781 580.652344 556.785156 568.710938 547.164062 547.035156 C 537.675781 525.679688 527.304688 517.59375 520.769531 517.140625 C 520.59375 517.140625 520.40625 517.140625 520.230469 517.140625 C 517.105469 517.140625 514.160156 518.988281 512.160156 522.222656 C 509.699219 526.195312 508.472656 532.839844 512.421875 539.585938 C 523.351562 558.253906 528.101562 576.949219 526.546875 595.136719 C 525.191406 611.09375 518.820312 626.414062 508.152344 639.445312 C 490.945312 660.414062 462.933594 674.503906 438.40625 674.503906 Z M 438.359375 674.457031 " fill-opacity="1" fill-rule="nonzero"/></g><path fill="#5ac3b2" d="M 672.042969 171.1875 C 660.746094 159.226562 647.261719 151.359375 635.054688 149.613281 C 621.824219 147.726562 580.742188 144.976562 542.949219 144.058594 C 491.734375 142.816406 459.300781 144.824219 446.523438 150.003906 C 428.449219 157.347656 417.265625 176.832031 411.113281 191.691406 C 409.820312 188.585938 408.375 185.550781 406.773438 182.59375 C 396.265625 163.210938 380.660156 151.515625 361.777344 148.753906 C 339.878906 145.558594 295.347656 144.449219 255.890625 146.109375 C 220.625 147.597656 175.527344 151.699219 160.644531 162.84375 C 151.277344 169.871094 142.394531 181.070312 136.261719 193.578125 C 132.429688 201.363281 126.621094 216.125 130.589844 227.453125 C 134.363281 238.183594 144.265625 239.542969 149.835938 239.371094 C 166.929688 238.851562 173.230469 225.261719 178.792969 213.265625 C 184.527344 200.90625 189.476562 190.226562 204.851562 190.226562 C 212.09375 190.226562 222.265625 189.316406 234.054688 188.257812 C 280.53125 184.089844 358.363281 177.113281 374.957031 217.238281 L 383.558594 244.609375 C 382.117188 245.023438 380.71875 245.550781 379.359375 246.191406 C 378.003906 246.832031 376.707031 247.578125 375.472656 248.425781 C 374.234375 249.277344 373.074219 250.222656 371.992188 251.257812 C 370.90625 252.296875 369.914062 253.414062 369.011719 254.609375 C 368.105469 255.808594 367.304688 257.070312 366.605469 258.398438 C 365.90625 259.726562 365.320312 261.101562 364.839844 262.523438 C 364.363281 263.945312 364.003906 265.398438 363.761719 266.878906 C 363.519531 268.359375 363.394531 269.847656 363.394531 271.347656 L 363.394531 499.515625 C 363.394531 500.421875 363.4375 501.328125 363.527344 502.234375 C 363.617188 503.136719 363.753906 504.035156 363.929688 504.925781 C 364.105469 505.816406 364.328125 506.695312 364.589844 507.566406 C 364.855469 508.4375 365.160156 509.289062 365.507812 510.128906 C 365.855469 510.96875 366.242188 511.789062 366.671875 512.589844 C 367.097656 513.394531 367.5625 514.171875 368.066406 514.929688 C 368.570312 515.683594 369.109375 516.414062 369.6875 517.117188 C 370.261719 517.820312 370.867188 518.492188 371.511719 519.136719 C 372.152344 519.78125 372.820312 520.394531 373.523438 520.96875 C 374.222656 521.546875 374.953125 522.089844 375.707031 522.597656 C 376.460938 523.105469 377.234375 523.574219 378.035156 524.003906 C 378.835938 524.4375 379.65625 524.828125 380.492188 525.175781 C 381.332031 525.527344 382.183594 525.835938 383.054688 526.105469 C 383.921875 526.371094 384.800781 526.597656 385.691406 526.777344 C 386.582031 526.957031 387.476562 527.09375 388.382812 527.1875 C 389.285156 527.28125 390.191406 527.332031 391.101562 527.335938 L 389.75 557.226562 C 371.53125 568.042969 360.242188 594.601562 365.738281 615.347656 C 366.300781 617.558594 367.074219 619.691406 368.0625 621.746094 C 369.050781 623.800781 370.234375 625.734375 371.609375 627.554688 C 372.984375 629.371094 374.527344 631.039062 376.234375 632.546875 C 377.941406 634.058594 379.785156 635.382812 381.757812 636.523438 C 387.164062 639.585938 392.953125 641.472656 399.125 642.195312 C 399.222656 642.472656 399.316406 642.742188 399.421875 643.015625 C 403.257812 652.734375 411.378906 659.800781 423.550781 664.011719 C 428.359375 665.605469 433.296875 666.371094 438.359375 666.308594 C 459.867188 666.308594 485.6875 653.839844 501.777344 634.234375 C 511.417969 622.476562 517.167969 608.703125 518.382812 594.378906 C 519.789062 577.898438 515.402344 560.824219 505.355469 543.632812 C 499.582031 533.757812 501.523438 523.847656 505.203125 517.863281 C 508.878906 511.878906 514.9375 508.527344 521.296875 508.957031 C 533 509.722656 545.132812 522.40625 554.585938 543.660156 C 559.449219 554.628906 569.988281 572.441406 587.003906 572.433594 C 587.808594 572.433594 588.621094 572.394531 589.441406 572.320312 C 604.503906 570.839844 618.351562 555.089844 623.167969 533.996094 C 627.421875 515.234375 623.933594 490.308594 601.300781 476.652344 C 587.113281 468.136719 568.027344 465.757812 549.554688 463.460938 C 529.882812 461.015625 511.300781 458.707031 504.234375 449.449219 C 501.339844 445.65625 500.402344 440.542969 501.371094 433.828125 C 501.390625 433.449219 501.378906 433.070312 501.332031 432.691406 C 501.285156 432.3125 501.203125 431.945312 501.085938 431.582031 C 500.96875 431.21875 500.816406 430.871094 500.636719 430.535156 C 500.453125 430.199219 500.242188 429.886719 500 429.589844 C 499.761719 429.292969 499.496094 429.023438 499.203125 428.777344 C 498.914062 428.53125 498.601562 428.316406 498.269531 428.128906 C 497.9375 427.941406 497.59375 427.785156 497.230469 427.660156 C 496.871094 427.539062 496.503906 427.449219 496.125 427.394531 C 495.75 427.339844 495.371094 427.320312 494.988281 427.335938 C 494.609375 427.351562 494.234375 427.40625 493.863281 427.492188 C 493.488281 427.578125 493.128906 427.695312 492.78125 427.851562 C 492.433594 428.003906 492.101562 428.1875 491.785156 428.402344 C 491.472656 428.617188 491.179688 428.859375 490.910156 429.128906 C 490.640625 429.398438 490.398438 429.691406 490.183594 430.007812 C 489.96875 430.320312 489.785156 430.652344 489.632812 431 C 489.480469 431.351562 489.359375 431.710938 489.273438 432.082031 C 487.828125 442.046875 489.597656 450.414062 494.515625 456.867188 C 504.695312 470.203125 525.757812 472.828125 548.054688 475.59375 C 565.253906 477.730469 583.035156 479.945312 594.9375 487.144531 C 616.398438 500.113281 612.8125 524.238281 611.203125 531.320312 C 607.683594 546.835938 597.8125 559.234375 588.207031 560.171875 C 580.191406 560.9375 572.203125 553.34375 565.707031 538.710938 C 559.039062 523.703125 544.503906 498.304688 522.085938 496.769531 C 511.125 496.003906 500.917969 501.5 494.761719 511.425781 C 487.632812 522.921875 487.632812 537.628906 494.761719 549.808594 C 504.152344 565.902344 516.324219 597.175781 492.292969 626.453125 C 473.800781 648.988281 443.871094 658.070312 427.515625 652.414062 C 420.898438 650.113281 416.015625 646.839844 413.027344 642.617188 C 414.007812 642.566406 415 642.511719 416.015625 642.425781 C 454.085938 639.183594 459 615.667969 459.34375 605.707031 C 459.691406 595.742188 456.324219 585.082031 450.148438 576.191406 C 445.035156 568.847656 438.488281 563.511719 431.652344 560.984375 L 431.652344 527.257812 C 432.539062 527.222656 433.421875 527.144531 434.304688 527.027344 C 435.183594 526.90625 436.054688 526.742188 436.917969 526.539062 C 437.785156 526.335938 438.636719 526.09375 439.476562 525.808594 C 440.316406 525.523438 441.144531 525.195312 441.953125 524.832031 C 442.761719 524.46875 443.554688 524.066406 444.324219 523.625 C 445.097656 523.1875 445.84375 522.710938 446.570312 522.199219 C 447.296875 521.6875 447.996094 521.144531 448.671875 520.566406 C 449.34375 519.988281 449.988281 519.378906 450.605469 518.738281 C 451.21875 518.097656 451.804688 517.429688 452.355469 516.734375 C 452.90625 516.039062 453.421875 515.316406 453.90625 514.574219 C 454.390625 513.828125 454.835938 513.058594 455.246094 512.273438 C 455.652344 511.484375 456.023438 510.679688 456.355469 509.855469 C 456.6875 509.03125 456.980469 508.195312 457.234375 507.34375 C 457.484375 506.492188 457.695312 505.628906 457.867188 504.757812 C 458.035156 503.886719 458.164062 503.007812 458.25 502.125 C 458.335938 501.242188 458.378906 500.355469 458.378906 499.46875 L 458.378906 271.347656 C 458.378906 269.882812 458.261719 268.425781 458.027344 266.980469 C 457.796875 265.53125 457.453125 264.113281 456.996094 262.71875 C 456.542969 261.328125 455.980469 259.976562 455.3125 258.675781 C 454.644531 257.371094 453.875 256.125 453.011719 254.941406 C 452.148438 253.757812 451.195312 252.652344 450.15625 251.617188 C 449.117188 250.585938 448 249.640625 446.8125 248.78125 C 445.625 247.925781 444.375 247.167969 443.066406 246.507812 C 441.757812 245.847656 440.40625 245.292969 439.011719 244.84375 L 457.949219 196.703125 C 458.054688 196.5 458.128906 196.285156 458.171875 196.0625 C 458.664062 194.863281 464.351562 182.992188 495.644531 181.605469 C 533.78125 179.910156 601.414062 181.605469 602.128906 181.605469 L 602.273438 181.605469 C 602.527344 181.605469 628.085938 181.84375 639.828125 195.808594 C 651.324219 209.433594 667.773438 217.4375 678.152344 214.410156 C 683.425781 212.875 686.882812 208.722656 687.640625 203.019531 C 688.980469 193.15625 680.457031 180.109375 672.042969 171.1875 Z M 413.75 606.816406 C 413.644531 606.570312 413.519531 606.332031 413.382812 606.101562 C 413.246094 605.871094 413.09375 605.652344 412.929688 605.441406 C 412.761719 605.230469 412.585938 605.035156 412.390625 604.847656 C 412.199219 604.660156 411.996094 604.488281 411.78125 604.328125 C 411.566406 604.167969 411.34375 604.019531 411.109375 603.890625 C 410.875 603.757812 410.632812 603.644531 410.386719 603.546875 C 410.136719 603.445312 409.882812 603.363281 409.621094 603.296875 C 409.363281 603.230469 409.101562 603.183594 408.832031 603.152344 C 408.566406 603.121094 408.300781 603.105469 408.03125 603.109375 C 407.765625 603.113281 407.5 603.136719 407.234375 603.175781 C 406.96875 603.214844 406.707031 603.269531 406.449219 603.339844 C 406.191406 603.414062 405.941406 603.503906 405.695312 603.609375 C 405.449219 603.714844 405.210938 603.835938 404.980469 603.972656 C 404.75 604.109375 404.527344 604.261719 404.320312 604.429688 C 404.109375 604.59375 403.910156 604.773438 403.722656 604.964844 C 403.535156 605.15625 403.363281 605.359375 403.203125 605.574219 C 402.316406 604.871094 401.625 604.007812 401.128906 602.992188 C 400.628906 601.976562 400.371094 600.90625 400.351562 599.773438 C 400.351562 595.359375 404.4375 591.773438 409.449219 591.773438 C 414.460938 591.773438 418.539062 595.359375 418.539062 599.773438 C 418.515625 600.527344 418.390625 601.261719 418.15625 601.980469 C 417.925781 602.695312 417.597656 603.367188 417.175781 603.988281 C 416.753906 604.613281 416.25 605.164062 415.671875 605.648438 C 415.089844 606.128906 414.457031 606.519531 413.765625 606.816406 Z M 413.75 606.816406 " fill-opacity="1" fill-rule="nonzero"/><path fill="#ffffff" d="M 447.152344 605.308594 C 446.660156 619.679688 435.238281 628.539062 415.003906 630.261719 C 412.976562 630.4375 411.066406 630.523438 409.242188 630.546875 C 409.183594 626.945312 409.640625 623.414062 410.613281 619.945312 C 421.835938 619.378906 430.78125 610.542969 430.78125 599.757812 C 430.78125 588.605469 421.214844 579.53125 409.464844 579.53125 C 397.714844 579.53125 388.140625 588.605469 388.140625 599.757812 C 388.160156 601.550781 388.417969 603.308594 388.910156 605.035156 C 389.402344 606.757812 390.113281 608.390625 391.039062 609.921875 C 391.96875 611.457031 393.082031 612.839844 394.382812 614.078125 C 395.683594 615.3125 397.125 616.355469 398.703125 617.203125 C 397.640625 621.214844 397.085938 625.292969 397.03125 629.441406 C 384.386719 626.636719 379.402344 619.066406 377.566406 612.191406 C 373.265625 595.996094 383.527344 573.390625 398.257812 566.554688 C 398.765625 566.320312 399.230469 566.019531 399.65625 565.65625 C 400.082031 565.289062 400.449219 564.875 400.761719 564.410156 C 401.074219 563.945312 401.316406 563.449219 401.492188 562.917969 C 401.664062 562.386719 401.765625 561.839844 401.792969 561.28125 L 403.324219 527.335938 L 419.421875 527.335938 L 419.421875 565.660156 C 419.421875 566.386719 419.550781 567.09375 419.804688 567.777344 C 420.058594 568.460938 420.421875 569.078125 420.894531 569.632812 C 421.371094 570.183594 421.925781 570.640625 422.558594 570.996094 C 423.195312 571.351562 423.875 571.585938 424.59375 571.699219 C 436.289062 573.539062 447.664062 590.492188 447.152344 605.308594 Z M 447.152344 605.308594 " fill-opacity="1" fill-rule="nonzero"/><path fill="#ffa95a" d="M 391.214844 255.75 L 430.566406 255.75 C 431.589844 255.75 432.601562 255.851562 433.609375 256.050781 C 434.613281 256.25 435.585938 256.546875 436.535156 256.9375 C 437.480469 257.332031 438.378906 257.8125 439.230469 258.378906 C 440.082031 258.949219 440.871094 259.597656 441.59375 260.320312 C 442.316406 261.042969 442.964844 261.832031 443.535156 262.683594 C 444.101562 263.535156 444.582031 264.433594 444.976562 265.378906 C 445.367188 266.328125 445.664062 267.300781 445.863281 268.304688 C 446.0625 269.3125 446.160156 270.324219 446.160156 271.347656 L 446.160156 499.507812 C 446.160156 500.53125 446.0625 501.542969 445.863281 502.550781 C 445.664062 503.554688 445.367188 504.527344 444.976562 505.476562 C 444.582031 506.421875 444.101562 507.320312 443.535156 508.171875 C 442.964844 509.023438 442.316406 509.8125 441.59375 510.535156 C 440.871094 511.257812 440.082031 511.90625 439.230469 512.476562 C 438.378906 513.042969 437.480469 513.523438 436.535156 513.917969 C 435.585938 514.308594 434.613281 514.605469 433.609375 514.804688 C 432.601562 515.003906 431.589844 515.105469 430.566406 515.105469 L 391.214844 515.105469 C 390.191406 515.105469 389.175781 515.003906 388.171875 514.804688 C 387.167969 514.605469 386.191406 514.308594 385.246094 513.917969 C 384.300781 513.523438 383.402344 513.042969 382.550781 512.476562 C 381.699219 511.90625 380.910156 511.257812 380.1875 510.535156 C 379.460938 509.8125 378.816406 509.023438 378.246094 508.171875 C 377.675781 507.320312 377.195312 506.421875 376.804688 505.476562 C 376.414062 504.527344 376.117188 503.554688 375.917969 502.550781 C 375.71875 501.542969 375.617188 500.53125 375.617188 499.507812 L 375.617188 271.347656 C 375.617188 270.324219 375.71875 269.3125 375.917969 268.304688 C 376.117188 267.300781 376.414062 266.328125 376.804688 265.378906 C 377.195312 264.433594 377.675781 263.535156 378.246094 262.683594 C 378.816406 261.832031 379.460938 261.042969 380.1875 260.320312 C 380.910156 259.597656 381.699219 258.949219 382.550781 258.378906 C 383.402344 257.8125 384.300781 257.332031 385.246094 256.9375 C 386.191406 256.546875 387.167969 256.25 388.171875 256.050781 C 389.175781 255.851562 390.191406 255.75 391.214844 255.75 Z M 391.214844 255.75 " fill-opacity="1" fill-rule="nonzero"/><path fill="#ffffff" d="M 675.546875 201.417969 C 675.398438 202.492188 675.183594 202.558594 674.777344 202.683594 C 670.488281 203.941406 658.398438 198.851562 649.242188 187.9375 C 634.042969 169.894531 604.570312 169.394531 602.402344 169.378906 C 599.851562 169.320312 533.152344 167.703125 495.136719 169.378906 C 455.28125 171.152344 447.679688 188.71875 446.515625 192.472656 L 426.425781 243.519531 L 395.929688 243.519531 L 396.027344 243.519531 L 386.539062 213.34375 C 386.492188 213.183594 386.4375 213.027344 386.371094 212.875 C 381.574219 201.058594 372.621094 191.730469 359.769531 185.160156 C 349.039062 179.683594 335.863281 176.117188 319.4375 174.246094 C 290.425781 170.953125 257.199219 173.933594 232.933594 176.109375 C 221.4375 177.136719 211.527344 178.027344 204.828125 178.027344 C 181.667969 178.027344 173.925781 194.726562 167.703125 208.148438 C 162.152344 220.089844 158.566406 226.871094 149.46875 227.148438 C 143.5 227.332031 142.570312 224.6875 142.125 223.414062 C 138.484375 213.015625 150.832031 185.484375 167.980469 172.628906 C 189.15625 156.742188 315.996094 154.433594 359.996094 160.84375 C 396.410156 166.152344 404.78125 212.261719 404.859375 212.722656 C 404.984375 213.414062 405.222656 214.0625 405.570312 214.671875 C 405.921875 215.28125 406.363281 215.8125 406.894531 216.269531 C 407.425781 216.726562 408.019531 217.082031 408.675781 217.335938 C 409.328125 217.589844 410.007812 217.726562 410.707031 217.746094 C 411.410156 217.769531 412.09375 217.671875 412.761719 217.457031 C 413.433594 217.242188 414.046875 216.921875 414.605469 216.496094 C 415.160156 216.074219 415.632812 215.566406 416.019531 214.980469 C 416.402344 214.390625 416.679688 213.757812 416.84375 213.074219 C 416.9375 212.660156 426.808594 171.1875 451.121094 161.324219 C 476.277344 151.109375 607.59375 158.035156 633.320312 161.707031 C 642.703125 163.050781 653.855469 169.734375 663.152344 179.574219 C 672.449219 189.414062 675.96875 198.253906 675.546875 201.417969 Z M 675.546875 201.417969 " fill-opacity="1" fill-rule="nonzero"/><g mask="url(#bcc52337ce)"><g transform="matrix(1, 0, 0, 1, 370, 293)"><g clip-path="url(#ddf3fd501a)"><g clip-path="url(#cb4f9c3ac8)"><path fill="#5ac3b2" d="M 14.609375 225.773438 C 14.609375 225.773438 68.742188 232.671875 77.171875 218.875 C 85.605469 205.082031 79.625 0.8125 79.625 0.8125 C 79.625 0.8125 55.726562 197.738281 35.050781 204.167969 C 14.371094 210.597656 0.558594 194.972656 0.558594 194.972656 C 0.558594 194.972656 -0.40625 224.425781 14.609375 225.773438 Z M 14.609375 225.773438 " fill-opacity="1" fill-rule="nonzero"/></g></g></g></g><g mask="url(#84389a15f2)"><g transform="matrix(1, 0, 0, 1, 384, 263)"><g clip-path="url(#77df95c65e)"><path fill="#ffffff" d="M 11.78125 4.960938 C 11.78125 4.960938 56.773438 -6.136719 47.660156 9.636719 C 7.804688 78.695312 36.324219 214.203125 16.367188 213.796875 C -3.59375 213.390625 -5.054688 8.671875 11.78125 4.960938 Z M 11.78125 4.960938 " fill-opacity="1" fill-rule="nonzero"/></g></g></g><path fill="#5ac3b2" d="M 422.28125 277.601562 L 387.453125 299.648438 C 387.074219 299.839844 386.71875 300.070312 386.386719 300.339844 C 386.054688 300.605469 385.757812 300.90625 385.488281 301.238281 C 385.21875 301.566406 384.988281 301.921875 384.792969 302.300781 C 384.597656 302.679688 384.445312 303.074219 384.332031 303.484375 C 384.21875 303.894531 384.152344 304.3125 384.125 304.738281 C 384.101562 305.160156 384.117188 305.585938 384.179688 306.003906 C 384.242188 306.425781 384.347656 306.835938 384.496094 307.234375 C 384.644531 307.636719 384.832031 308.015625 385.058594 308.375 C 385.285156 308.734375 385.546875 309.066406 385.84375 309.375 C 386.140625 309.679688 386.464844 309.949219 386.820312 310.1875 C 387.171875 310.425781 387.546875 310.625 387.941406 310.785156 C 388.335938 310.945312 388.742188 311.0625 389.160156 311.140625 C 389.578125 311.214844 390 311.246094 390.425781 311.234375 C 390.851562 311.222656 391.273438 311.164062 391.683594 311.066406 C 392.097656 310.964844 392.5 310.824219 392.882812 310.640625 C 393.265625 310.457031 393.628906 310.238281 393.964844 309.976562 L 428.792969 287.933594 C 429.101562 287.707031 429.382812 287.449219 429.640625 287.167969 C 429.902344 286.886719 430.132812 286.582031 430.332031 286.257812 C 430.535156 285.933594 430.707031 285.59375 430.84375 285.234375 C 430.980469 284.878906 431.085938 284.511719 431.15625 284.136719 C 431.222656 283.757812 431.257812 283.378906 431.257812 282.996094 C 431.253906 282.613281 431.21875 282.234375 431.144531 281.859375 C 431.074219 281.484375 430.964844 281.117188 430.824219 280.761719 C 430.683594 280.40625 430.511719 280.066406 430.304688 279.742188 C 430.101562 279.421875 429.867188 279.117188 429.609375 278.839844 C 429.347656 278.558594 429.0625 278.304688 428.753906 278.078125 C 428.445312 277.855469 428.117188 277.65625 427.773438 277.492188 C 427.429688 277.328125 427.070312 277.195312 426.699219 277.097656 C 426.332031 277 425.953125 276.933594 425.574219 276.90625 C 425.191406 276.878906 424.8125 276.886719 424.429688 276.929688 C 424.050781 276.972656 423.675781 277.050781 423.3125 277.164062 C 422.945312 277.277344 422.59375 277.425781 422.257812 277.601562 Z M 422.28125 277.601562 " fill-opacity="1" fill-rule="nonzero"/><path fill="#5ac3b2" d="M 422.28125 320.316406 L 387.453125 342.359375 C 387.074219 342.554688 386.71875 342.785156 386.386719 343.054688 C 386.054688 343.320312 385.757812 343.621094 385.488281 343.949219 C 385.21875 344.28125 384.988281 344.636719 384.792969 345.015625 C 384.597656 345.394531 384.445312 345.789062 384.332031 346.199219 C 384.21875 346.609375 384.152344 347.027344 384.125 347.453125 C 384.101562 347.875 384.117188 348.300781 384.179688 348.71875 C 384.242188 349.140625 384.347656 349.550781 384.496094 349.949219 C 384.644531 350.347656 384.832031 350.730469 385.058594 351.089844 C 385.285156 351.449219 385.546875 351.78125 385.84375 352.085938 C 386.140625 352.394531 386.464844 352.664062 386.820312 352.902344 C 387.171875 353.140625 387.546875 353.339844 387.941406 353.5 C 388.335938 353.660156 388.742188 353.777344 389.160156 353.851562 C 389.578125 353.929688 390 353.960938 390.425781 353.949219 C 390.851562 353.933594 391.273438 353.878906 391.683594 353.777344 C 392.097656 353.679688 392.5 353.539062 392.882812 353.355469 C 393.265625 353.171875 393.628906 352.949219 393.964844 352.691406 L 428.792969 330.648438 C 429.101562 330.421875 429.382812 330.164062 429.640625 329.882812 C 429.902344 329.601562 430.132812 329.296875 430.332031 328.972656 C 430.535156 328.648438 430.707031 328.308594 430.84375 327.949219 C 430.980469 327.59375 431.085938 327.226562 431.15625 326.851562 C 431.222656 326.472656 431.257812 326.09375 431.257812 325.710938 C 431.253906 325.328125 431.21875 324.949219 431.144531 324.574219 C 431.074219 324.199219 430.964844 323.832031 430.824219 323.476562 C 430.683594 323.121094 430.511719 322.78125 430.304688 322.457031 C 430.101562 322.136719 429.867188 321.832031 429.609375 321.554688 C 429.347656 321.273438 429.0625 321.019531 428.753906 320.792969 C 428.445312 320.566406 428.117188 320.371094 427.773438 320.207031 C 427.429688 320.042969 427.070312 319.910156 426.699219 319.8125 C 426.332031 319.714844 425.953125 319.648438 425.574219 319.621094 C 425.191406 319.59375 424.8125 319.601562 424.429688 319.644531 C 424.050781 319.6875 423.675781 319.765625 423.3125 319.878906 C 422.945312 319.992188 422.59375 320.140625 422.257812 320.316406 Z M 422.28125 320.316406 " fill-opacity="1" fill-rule="nonzero"/><path fill="#5ac3b2" d="M 422.28125 363.03125 L 387.453125 385.074219 C 387.0625 385.265625 386.699219 385.492188 386.359375 385.757812 C 386.019531 386.023438 385.714844 386.320312 385.4375 386.652344 C 385.160156 386.980469 384.921875 387.335938 384.71875 387.71875 C 384.515625 388.097656 384.355469 388.496094 384.238281 388.910156 C 384.121094 389.328125 384.046875 389.75 384.019531 390.179688 C 383.992188 390.609375 384.007812 391.039062 384.070312 391.464844 C 384.128906 391.890625 384.234375 392.308594 384.386719 392.710938 C 384.535156 393.117188 384.726562 393.5 384.957031 393.863281 C 385.1875 394.230469 385.453125 394.566406 385.753906 394.875 C 386.054688 395.183594 386.382812 395.457031 386.742188 395.695312 C 387.101562 395.933594 387.484375 396.132812 387.882812 396.289062 C 388.285156 396.449219 388.699219 396.5625 389.125 396.632812 C 389.546875 396.707031 389.976562 396.730469 390.40625 396.714844 C 390.835938 396.695312 391.261719 396.628906 391.679688 396.523438 C 392.097656 396.414062 392.496094 396.261719 392.882812 396.070312 C 393.269531 395.875 393.628906 395.644531 393.964844 395.375 L 428.792969 373.332031 C 429.101562 373.105469 429.382812 372.847656 429.640625 372.566406 C 429.902344 372.285156 430.132812 371.980469 430.332031 371.65625 C 430.535156 371.332031 430.707031 370.992188 430.84375 370.632812 C 430.980469 370.277344 431.085938 369.910156 431.15625 369.535156 C 431.222656 369.15625 431.257812 368.777344 431.257812 368.394531 C 431.253906 368.011719 431.21875 367.632812 431.144531 367.257812 C 431.074219 366.882812 430.964844 366.515625 430.824219 366.160156 C 430.683594 365.804688 430.511719 365.464844 430.304688 365.140625 C 430.101562 364.820312 429.867188 364.515625 429.609375 364.238281 C 429.347656 363.957031 429.0625 363.703125 428.753906 363.476562 C 428.445312 363.25 428.117188 363.054688 427.773438 362.890625 C 427.429688 362.726562 427.070312 362.59375 426.699219 362.496094 C 426.332031 362.398438 425.953125 362.332031 425.574219 362.304688 C 425.191406 362.277344 424.8125 362.285156 424.429688 362.328125 C 424.050781 362.371094 423.675781 362.449219 423.3125 362.5625 C 422.945312 362.675781 422.59375 362.824219 422.257812 363 Z M 422.28125 363.03125 " fill-opacity="1" fill-rule="nonzero"/><path fill="#5ac3b2" d="M 422.28125 405.746094 L 387.453125 427.789062 C 387.074219 427.984375 386.71875 428.214844 386.386719 428.480469 C 386.054688 428.75 385.757812 429.050781 385.488281 429.378906 C 385.21875 429.710938 384.988281 430.066406 384.792969 430.441406 C 384.597656 430.820312 384.445312 431.214844 384.332031 431.625 C 384.21875 432.039062 384.152344 432.453125 384.125 432.878906 C 384.101562 433.304688 384.117188 433.726562 384.179688 434.148438 C 384.242188 434.570312 384.347656 434.980469 384.496094 435.378906 C 384.644531 435.777344 384.832031 436.15625 385.058594 436.519531 C 385.285156 436.878906 385.546875 437.210938 385.84375 437.515625 C 386.140625 437.820312 386.464844 438.09375 386.820312 438.332031 C 387.171875 438.570312 387.546875 438.769531 387.941406 438.929688 C 388.335938 439.089844 388.742188 439.207031 389.160156 439.28125 C 389.578125 439.355469 390 439.390625 390.425781 439.375 C 390.851562 439.363281 391.273438 439.308594 391.683594 439.207031 C 392.097656 439.109375 392.5 438.964844 392.882812 438.785156 C 393.265625 438.601562 393.628906 438.378906 393.964844 438.121094 L 428.816406 416.070312 C 429.125 415.839844 429.40625 415.585938 429.664062 415.304688 C 429.925781 415.023438 430.15625 414.71875 430.355469 414.394531 C 430.558594 414.070312 430.726562 413.726562 430.867188 413.371094 C 431.003906 413.015625 431.109375 412.648438 431.175781 412.269531 C 431.246094 411.894531 431.28125 411.515625 431.28125 411.132812 C 431.277344 410.75 431.242188 410.371094 431.167969 409.996094 C 431.09375 409.621094 430.988281 409.253906 430.847656 408.898438 C 430.707031 408.542969 430.535156 408.203125 430.328125 407.878906 C 430.125 407.554688 429.890625 407.253906 429.628906 406.972656 C 429.371094 406.695312 429.085938 406.441406 428.777344 406.214844 C 428.46875 405.988281 428.140625 405.792969 427.796875 405.628906 C 427.449219 405.460938 427.09375 405.332031 426.722656 405.230469 C 426.355469 405.132812 425.976562 405.070312 425.597656 405.042969 C 425.214844 405.015625 424.832031 405.023438 424.453125 405.066406 C 424.074219 405.109375 423.699219 405.1875 423.335938 405.300781 C 422.96875 405.414062 422.617188 405.558594 422.28125 405.738281 Z M 422.28125 405.746094 " fill-opacity="1" fill-rule="nonzero"/><path fill="#5ac3b2" d="M 422.28125 448.460938 L 387.453125 470.488281 C 387.078125 470.6875 386.730469 470.917969 386.402344 471.1875 C 386.078125 471.457031 385.785156 471.757812 385.519531 472.085938 C 385.257812 472.417969 385.03125 472.769531 384.839844 473.148438 C 384.648438 473.523438 384.5 473.917969 384.390625 474.324219 C 384.28125 474.734375 384.214844 475.148438 384.191406 475.570312 C 384.167969 475.992188 384.1875 476.410156 384.25 476.828125 C 384.3125 477.246094 384.417969 477.652344 384.566406 478.050781 C 384.710938 478.445312 384.898438 478.820312 385.125 479.179688 C 385.347656 479.535156 385.609375 479.867188 385.902344 480.171875 C 386.195312 480.476562 386.515625 480.746094 386.863281 480.984375 C 387.214844 481.21875 387.585938 481.417969 387.976562 481.582031 C 388.363281 481.742188 388.769531 481.859375 389.183594 481.9375 C 389.597656 482.015625 390.015625 482.050781 390.4375 482.042969 C 390.863281 482.035156 391.277344 481.980469 391.691406 481.886719 C 392.101562 481.792969 392.5 481.65625 392.882812 481.480469 C 393.265625 481.300781 393.628906 481.085938 393.964844 480.835938 L 428.792969 458.792969 C 429.101562 458.5625 429.382812 458.308594 429.640625 458.027344 C 429.902344 457.746094 430.132812 457.441406 430.332031 457.117188 C 430.535156 456.789062 430.707031 456.449219 430.84375 456.09375 C 430.980469 455.734375 431.085938 455.371094 431.15625 454.992188 C 431.222656 454.617188 431.257812 454.238281 431.257812 453.855469 C 431.253906 453.472656 431.21875 453.09375 431.144531 452.71875 C 431.074219 452.339844 430.964844 451.976562 430.824219 451.621094 C 430.683594 451.265625 430.511719 450.925781 430.304688 450.601562 C 430.101562 450.277344 429.867188 449.976562 429.609375 449.695312 C 429.347656 449.417969 429.0625 449.164062 428.753906 448.9375 C 428.445312 448.710938 428.117188 448.515625 427.773438 448.351562 C 427.429688 448.183594 427.070312 448.050781 426.699219 447.953125 C 426.332031 447.855469 425.953125 447.792969 425.574219 447.765625 C 425.191406 447.738281 424.8125 447.746094 424.429688 447.789062 C 424.050781 447.832031 423.675781 447.910156 423.3125 448.023438 C 422.945312 448.136719 422.59375 448.28125 422.257812 448.460938 Z M 422.28125 448.460938 " fill-opacity="1" fill-rule="nonzero"/><g mask="url(#e0062b2839)"><g transform="matrix(1, 0, 0, 1, 396, 162)"><g clip-path="url(#6bf531dfad)"><g clip-path="url(#e574e419a8)"><path fill="#5ac3b2" d="M 0.671875 83.917969 C 0.671875 83.917969 26.730469 70.121094 30.800781 53.476562 C 34.871094 36.828125 43.355469 11.417969 76.023438 5.769531 C 108.6875 0.121094 217.5625 -1.128906 231.367188 5.769531 C 245.171875 12.667969 289.117188 43.75 277.820312 45.320312 C 266.523438 46.890625 239.191406 15.207031 221.003906 14.890625 C 202.816406 14.578125 75.378906 5.785156 65.335938 20.257812 C 55.296875 34.726562 33.015625 88.671875 32.074219 88.671875 C 31.132812 88.671875 0.671875 83.917969 0.671875 83.917969 Z M 0.671875 83.917969 " fill-opacity="1" fill-rule="nonzero"/></g></g></g></g><g mask="url(#2f6fed4532)"><g transform="matrix(1, 0, 0, 1, 147, 166)"><g clip-path="url(#5ee04d2355)"><g clip-path="url(#7b1425f4e4)"><path fill="#5ac3b2" d="M 0.707031 65.21875 C 0.707031 65.21875 20.097656 61.070312 32.734375 33.792969 C 45.375 6.515625 185.257812 15 185.257812 15 C 185.257812 15 119.734375 -3.539062 79.75 2.039062 C 39.765625 7.617188 22.160156 15.261719 12.433594 29.664062 C 2.707031 44.0625 0.707031 65.21875 0.707031 65.21875 Z M 0.707031 65.21875 " fill-opacity="1" fill-rule="nonzero"/></g></g></g></g><g mask="url(#8f358fe81e)"><g transform="matrix(1, 0, 0, 1, 400, 521)"><g clip-path="url(#0f88aed54c)"><g clip-path="url(#e62eef53db)"><path fill="#5ac3b2" d="M 0.367188 3.5 L 0.367188 13.464844 C 0.367188 13.464844 13.808594 17.296875 13.394531 25.4375 C 12.980469 33.574219 10.550781 51.410156 19.886719 54.253906 C 29.222656 57.097656 45.257812 75.15625 43.433594 84.914062 C 41.609375 94.667969 30.855469 109.675781 30.042969 109.546875 C 29.230469 109.417969 53.988281 92.386719 53.988281 92.386719 L 49.152344 64.171875 L 26.21875 43.476562 L 24.96875 0.839844 Z M 0.367188 3.5 " fill-opacity="1" fill-rule="nonzero"/></g></g></g></g><path fill="#ffa54f" d="M 603.191406 210.230469 L 600.773438 222.730469 L 613.273438 220.367188 L 610.910156 232.8125 L 623.359375 230.449219 L 620.996094 242.949219 L 633.496094 240.535156 L 631.078125 253.035156 L 643.578125 250.671875 L 641.214844 263.117188 L 653.664062 260.753906 L 651.300781 273.203125 L 663.796875 270.839844 L 661.382812 283.339844 L 673.882812 280.976562 L 671.519531 293.421875 L 683.964844 291.058594 L 681.601562 303.507812 L 694.101562 301.144531 L 691.6875 313.640625 L 704.1875 311.277344 L 582.394531 433.074219 L 584.757812 420.574219 L 572.257812 422.988281 L 574.621094 410.488281 L 562.171875 412.851562 L 564.535156 400.40625 L 552.089844 402.769531 L 554.453125 390.269531 L 541.953125 392.683594 L 544.316406 380.183594 L 531.867188 382.546875 L 534.230469 370.101562 L 521.785156 372.464844 L 524.148438 359.964844 L 511.648438 362.382812 L 514.0625 349.882812 L 501.566406 352.246094 L 503.929688 339.796875 L 491.480469 342.160156 L 493.84375 329.660156 L 481.34375 332.078125 Z M 603.191406 210.230469 " fill-opacity="1" fill-rule="nonzero"/><path fill="#f07f35" d="M 635.859375 278.558594 C 612.117188 254.820312 573.464844 254.820312 549.726562 278.558594 C 525.984375 302.296875 525.984375 340.953125 549.726562 364.746094 C 561.59375 376.613281 577.191406 382.546875 592.792969 382.546875 C 608.390625 382.546875 623.988281 376.613281 635.859375 364.746094 C 659.597656 341.003906 659.597656 302.351562 635.859375 278.558594 Z M 625.460938 354.34375 C 616.425781 363.378906 604.609375 367.84375 592.792969 367.84375 C 580.976562 367.84375 569.105469 363.328125 560.125 354.34375 C 551.40625 345.628906 546.574219 334.019531 546.574219 321.679688 C 546.574219 309.335938 551.40625 297.730469 560.125 289.011719 C 568.84375 280.292969 580.449219 275.460938 592.792969 275.460938 C 605.132812 275.460938 616.742188 280.238281 625.460938 289.011719 C 643.472656 307.023438 643.472656 336.332031 625.460938 354.34375 Z M 625.460938 354.34375 " fill-opacity="1" fill-rule="nonzero"/><path fill="#5ac3b2" d="M 733.597656 403.660156 C 733.597656 405.589844 733.503906 407.511719 733.316406 409.425781 C 733.125 411.34375 732.84375 413.246094 732.46875 415.136719 C 732.089844 417.027344 731.625 418.894531 731.066406 420.738281 C 730.503906 422.582031 729.859375 424.390625 729.121094 426.171875 C 728.382812 427.953125 727.558594 429.691406 726.652344 431.390625 C 725.742188 433.089844 724.753906 434.738281 723.683594 436.339844 C 722.613281 437.945312 721.46875 439.488281 720.246094 440.976562 C 719.023438 442.46875 717.730469 443.894531 716.367188 445.253906 C 715.007812 446.617188 713.582031 447.910156 712.09375 449.132812 C 710.601562 450.355469 709.058594 451.5 707.457031 452.570312 C 705.855469 453.640625 704.203125 454.628906 702.503906 455.539062 C 700.804688 456.445312 699.066406 457.269531 697.285156 458.007812 C 695.507812 458.742188 693.695312 459.390625 691.851562 459.949219 C 690.007812 460.511719 688.140625 460.976562 686.25 461.355469 C 684.363281 461.730469 682.457031 462.011719 680.539062 462.199219 C 678.625 462.390625 676.703125 462.484375 674.777344 462.484375 C 672.847656 462.484375 670.925781 462.390625 669.011719 462.199219 C 667.09375 462.011719 665.1875 461.730469 663.300781 461.355469 C 661.410156 460.976562 659.542969 460.511719 657.699219 459.949219 C 655.855469 459.390625 654.042969 458.742188 652.265625 458.007812 C 650.484375 457.269531 648.746094 456.445312 647.046875 455.539062 C 645.347656 454.628906 643.695312 453.640625 642.09375 452.570312 C 640.492188 451.5 638.949219 450.355469 637.457031 449.132812 C 635.96875 447.910156 634.542969 446.617188 633.183594 445.253906 C 631.820312 443.894531 630.527344 442.46875 629.304688 440.976562 C 628.082031 439.488281 626.9375 437.945312 625.867188 436.339844 C 624.796875 434.738281 623.808594 433.089844 622.898438 431.390625 C 621.992188 429.691406 621.167969 427.953125 620.429688 426.171875 C 619.695312 424.390625 619.046875 422.582031 618.484375 420.738281 C 617.925781 418.894531 617.460938 417.027344 617.082031 415.136719 C 616.707031 413.246094 616.425781 411.34375 616.234375 409.425781 C 616.046875 407.511719 615.953125 405.589844 615.953125 403.660156 C 615.953125 401.734375 616.046875 399.8125 616.234375 397.894531 C 616.425781 395.980469 616.707031 394.074219 617.082031 392.1875 C 617.460938 390.296875 617.925781 388.429688 618.484375 386.585938 C 619.046875 384.742188 619.695312 382.929688 620.429688 381.152344 C 621.167969 379.371094 621.992188 377.632812 622.898438 375.933594 C 623.808594 374.234375 624.796875 372.582031 625.867188 370.980469 C 626.9375 369.378906 628.082031 367.835938 629.304688 366.34375 C 630.527344 364.855469 631.820312 363.429688 633.183594 362.066406 C 634.542969 360.707031 635.96875 359.414062 637.457031 358.191406 C 638.949219 356.96875 640.492188 355.824219 642.09375 354.753906 C 643.695312 353.683594 645.347656 352.691406 647.046875 351.785156 C 648.746094 350.875 650.484375 350.054688 652.265625 349.316406 C 654.042969 348.578125 655.855469 347.929688 657.699219 347.371094 C 659.542969 346.8125 661.410156 346.34375 663.300781 345.96875 C 665.1875 345.59375 667.09375 345.3125 669.011719 345.121094 C 670.925781 344.933594 672.847656 344.839844 674.777344 344.839844 C 676.703125 344.839844 678.625 344.933594 680.539062 345.121094 C 682.457031 345.3125 684.363281 345.59375 686.25 345.96875 C 688.140625 346.34375 690.007812 346.8125 691.851562 347.371094 C 693.695312 347.929688 695.507812 348.578125 697.285156 349.316406 C 699.066406 350.054688 700.804688 350.875 702.503906 351.785156 C 704.203125 352.691406 705.855469 353.683594 707.457031 354.753906 C 709.058594 355.824219 710.601562 356.96875 712.09375 358.191406 C 713.582031 359.414062 715.007812 360.707031 716.367188 362.066406 C 717.730469 363.429688 719.023438 364.855469 720.246094 366.34375 C 721.46875 367.835938 722.613281 369.378906 723.683594 370.980469 C 724.753906 372.582031 725.742188 374.234375 726.652344 375.933594 C 727.558594 377.632812 728.382812 379.371094 729.121094 381.152344 C 729.859375 382.929688 730.503906 384.742188 731.066406 386.585938 C 731.625 388.429688 732.089844 390.296875 732.46875 392.1875 C 732.84375 394.074219 733.125 395.980469 733.316406 397.894531 C 733.503906 399.8125 733.597656 401.734375 733.597656 403.660156 Z M 733.597656 403.660156 " fill-opacity="1" fill-rule="nonzero"/><path fill="#5ac3b2" d="M 720.992188 403.660156 C 720.992188 405.175781 720.917969 406.683594 720.769531 408.191406 C 720.621094 409.699219 720.398438 411.195312 720.105469 412.679688 C 719.808594 414.164062 719.441406 415.628906 719.003906 417.078125 C 718.5625 418.527344 718.054688 419.949219 717.476562 421.347656 C 716.894531 422.746094 716.25 424.113281 715.535156 425.449219 C 714.820312 426.785156 714.042969 428.082031 713.203125 429.339844 C 712.363281 430.597656 711.460938 431.8125 710.503906 432.980469 C 709.542969 434.152344 708.527344 435.273438 707.457031 436.34375 C 706.386719 437.414062 705.265625 438.429688 704.09375 439.386719 C 702.925781 440.347656 701.710938 441.25 700.453125 442.089844 C 699.195312 442.929688 697.898438 443.707031 696.5625 444.421875 C 695.226562 445.136719 693.859375 445.78125 692.460938 446.359375 C 691.0625 446.941406 689.640625 447.449219 688.191406 447.890625 C 686.742188 448.328125 685.277344 448.695312 683.792969 448.992188 C 682.308594 449.285156 680.8125 449.507812 679.304688 449.65625 C 677.800781 449.804688 676.289062 449.878906 674.777344 449.878906 C 673.261719 449.878906 671.75 449.804688 670.246094 449.65625 C 668.738281 449.507812 667.242188 449.285156 665.757812 448.992188 C 664.273438 448.695312 662.808594 448.328125 661.359375 447.890625 C 659.910156 447.449219 658.488281 446.941406 657.089844 446.359375 C 655.691406 445.78125 654.324219 445.136719 652.988281 444.421875 C 651.652344 443.707031 650.355469 442.929688 649.097656 442.089844 C 647.839844 441.25 646.625 440.347656 645.457031 439.386719 C 644.285156 438.429688 643.164062 437.414062 642.09375 436.34375 C 641.023438 435.273438 640.007812 434.152344 639.046875 432.980469 C 638.089844 431.8125 637.1875 430.597656 636.347656 429.339844 C 635.507812 428.082031 634.730469 426.785156 634.015625 425.449219 C 633.300781 424.113281 632.65625 422.746094 632.074219 421.347656 C 631.496094 419.949219 630.988281 418.527344 630.546875 417.078125 C 630.109375 415.628906 629.742188 414.164062 629.445312 412.679688 C 629.152344 411.195312 628.929688 409.699219 628.78125 408.191406 C 628.632812 406.683594 628.558594 405.175781 628.558594 403.660156 C 628.558594 402.148438 628.632812 400.636719 628.78125 399.132812 C 628.929688 397.625 629.152344 396.128906 629.445312 394.644531 C 629.742188 393.160156 630.109375 391.695312 630.546875 390.246094 C 630.988281 388.796875 631.496094 387.375 632.074219 385.976562 C 632.65625 384.578125 633.300781 383.210938 634.015625 381.875 C 634.730469 380.539062 635.507812 379.242188 636.347656 377.984375 C 637.1875 376.726562 638.089844 375.511719 639.046875 374.339844 C 640.007812 373.171875 641.023438 372.050781 642.09375 370.980469 C 643.164062 369.910156 644.285156 368.894531 645.457031 367.933594 C 646.625 366.976562 647.839844 366.074219 649.097656 365.234375 C 650.355469 364.390625 651.652344 363.613281 652.988281 362.902344 C 654.324219 362.1875 655.691406 361.542969 657.089844 360.960938 C 658.488281 360.382812 659.910156 359.875 661.359375 359.433594 C 662.808594 358.996094 664.273438 358.628906 665.757812 358.332031 C 667.242188 358.035156 668.738281 357.816406 670.246094 357.667969 C 671.75 357.519531 673.261719 357.445312 674.777344 357.445312 C 676.289062 357.445312 677.800781 357.519531 679.304688 357.667969 C 680.8125 357.816406 682.308594 358.035156 683.792969 358.332031 C 685.277344 358.628906 686.742188 358.996094 688.191406 359.433594 C 689.640625 359.875 691.0625 360.382812 692.460938 360.960938 C 693.859375 361.542969 695.226562 362.1875 696.5625 362.902344 C 697.898438 363.613281 699.195312 364.390625 700.453125 365.234375 C 701.710938 366.074219 702.925781 366.976562 704.09375 367.933594 C 705.265625 368.894531 706.386719 369.910156 707.457031 370.980469 C 708.527344 372.050781 709.542969 373.171875 710.503906 374.339844 C 711.460938 375.511719 712.363281 376.726562 713.203125 377.984375 C 714.042969 379.242188 714.820312 380.539062 715.535156 381.875 C 716.25 383.210938 716.894531 384.578125 717.476562 385.976562 C 718.054688 387.375 718.5625 388.796875 719.003906 390.246094 C 719.441406 391.695312 719.808594 393.160156 720.105469 394.644531 C 720.398438 396.128906 720.621094 397.625 720.769531 399.132812 C 720.917969 400.636719 720.992188 402.148438 720.992188 403.660156 Z M 720.992188 403.660156 " fill-opacity="1" fill-rule="nonzero"/><path fill="#5ac3b2" d="M 689.742188 357.707031 L 688.746094 348.9375 C 687.957031 341.792969 681.917969 336.382812 674.722656 336.382812 C 667.527344 336.382812 661.539062 341.792969 660.699219 348.9375 L 659.703125 357.707031 C 658.496094 368.578125 654.710938 378.976562 648.621094 388.0625 C 644.679688 393.996094 639.847656 399.25 634.28125 403.660156 C 632.8125 404.871094 634.019531 407.863281 634.019531 407.863281 L 717.105469 407.863281 L 717.160156 405.394531 C 711.277344 401.507812 706.234375 396.464844 702.347656 390.585938 L 700.667969 388.117188 C 694.734375 378.976562 690.953125 368.578125 689.742188 357.707031 Z M 689.742188 357.707031 " fill-opacity="1" fill-rule="nonzero"/><g clip-path="url(#eb4efc2ac6)"><path fill="#000000" d="M 674.777344 464.585938 C 708.386719 464.585938 735.699219 437.273438 735.699219 403.660156 C 735.699219 389.847656 730.917969 376.296875 722.304688 365.53125 C 714.058594 355.238281 702.558594 347.832031 689.847656 344.628906 C 687.484375 338.535156 681.601562 334.335938 674.777344 334.335938 C 667.949219 334.335938 662.066406 338.535156 659.703125 344.628906 C 646.992188 347.886719 635.492188 355.238281 627.246094 365.53125 C 618.632812 376.296875 613.851562 389.847656 613.851562 403.660156 C 613.851562 437.273438 641.164062 464.585938 674.777344 464.585938 Z M 718.890625 403.871094 C 712.484375 399.25 706.96875 393.523438 702.558594 386.90625 C 697.832031 379.765625 694.46875 371.730469 692.738281 363.378906 C 708.492188 370.417969 718.890625 386.171875 718.890625 403.660156 C 718.890625 403.714844 718.890625 403.820312 718.890625 403.871094 Z M 674.777344 338.535156 C 680.867188 338.535156 686.015625 343.105469 686.699219 349.199219 L 687.695312 357.96875 C 688.957031 369.101562 692.894531 379.921875 699.09375 389.269531 C 704.292969 397.042969 710.855469 403.609375 718.628906 408.808594 C 716.109375 430.761719 697.097656 447.832031 674.828125 447.832031 C 652.558594 447.832031 633.601562 430.816406 631.027344 408.808594 C 638.800781 403.609375 645.363281 397.042969 650.5625 389.269531 C 656.761719 379.921875 660.699219 369.105469 661.960938 357.96875 L 662.957031 349.199219 C 663.535156 343.105469 668.683594 338.535156 674.777344 338.535156 Z M 630.660156 403.660156 C 630.660156 386.171875 641.003906 370.417969 656.8125 363.378906 C 655.082031 371.78125 651.773438 379.816406 646.992188 386.90625 C 642.582031 393.523438 637.066406 399.199219 630.660156 403.871094 C 630.660156 403.820312 630.660156 403.714844 630.660156 403.660156 Z M 658.652344 349.304688 L 657.757812 357.496094 C 657.707031 357.8125 657.652344 358.179688 657.652344 358.496094 C 638.957031 365.585938 626.507812 383.597656 626.507812 403.660156 C 626.507812 405.132812 626.5625 406.550781 626.71875 407.914062 C 627.769531 419.890625 633.230469 431.023438 642.109375 439.21875 C 651.035156 447.464844 662.695312 451.980469 674.828125 451.980469 C 686.960938 451.980469 698.621094 447.464844 707.546875 439.21875 C 716.421875 431.023438 721.886719 419.941406 722.9375 407.96875 C 723.042969 406.601562 723.144531 405.183594 723.144531 403.714844 C 723.144531 383.652344 710.699219 365.636719 692 358.546875 C 691.949219 358.230469 691.898438 357.863281 691.898438 357.550781 L 691.003906 349.355469 C 714.953125 356.339844 731.496094 378.292969 731.496094 403.660156 C 731.496094 434.964844 706.078125 460.382812 674.777344 460.382812 C 643.472656 460.382812 618.054688 434.964844 618.054688 403.660156 C 618.054688 378.292969 634.597656 356.339844 658.652344 349.304688 Z M 658.652344 349.304688 " fill-opacity="1" fill-rule="nonzero"/></g><path fill="#000000" d="M 592.792969 275.460938 C 580.449219 275.460938 568.84375 280.292969 560.125 289.011719 C 551.40625 297.730469 546.574219 309.335938 546.574219 321.679688 C 546.574219 334.019531 551.40625 345.628906 560.125 354.34375 C 569.15625 363.378906 580.976562 367.84375 592.792969 367.84375 C 604.609375 367.84375 616.476562 363.328125 625.460938 354.34375 C 643.472656 336.332031 643.472656 307.023438 625.460938 288.957031 C 616.742188 280.238281 605.132812 275.460938 592.792969 275.460938 Z M 622.464844 351.351562 C 606.078125 367.738281 579.453125 367.738281 563.066406 351.351562 C 555.136719 343.421875 550.777344 332.863281 550.777344 321.625 C 550.777344 310.386719 555.136719 299.828125 563.066406 291.898438 C 570.996094 283.96875 581.550781 279.609375 592.792969 279.609375 C 604.03125 279.609375 614.585938 283.96875 622.519531 291.898438 C 638.851562 308.335938 638.851562 334.964844 622.464844 351.351562 Z M 622.464844 351.351562 " fill-opacity="1" fill-rule="nonzero"/><path fill="#000000" d="M 616.058594 295.050781 C 615.21875 295.890625 615.21875 297.203125 616.058594 298.042969 C 621.203125 303.191406 624.410156 309.652344 625.460938 316.792969 C 625.617188 317.84375 626.507812 318.578125 627.558594 318.578125 C 627.664062 318.578125 627.769531 318.578125 627.875 318.578125 C 629.03125 318.421875 629.816406 317.371094 629.660156 316.214844 C 628.503906 308.179688 624.882812 300.828125 619.105469 295.101562 C 618.210938 294.210938 616.847656 294.210938 616.058594 295.050781 Z M 616.058594 295.050781 " fill-opacity="1" fill-rule="nonzero"/><path fill="#000000" d="M 563.277344 305.921875 C 563.800781 304.871094 563.433594 303.609375 562.382812 303.085938 C 561.332031 302.5625 560.070312 302.929688 559.546875 303.980469 C 551.824219 318.578125 554.453125 336.226562 566.164062 347.886719 C 566.585938 348.304688 567.109375 348.515625 567.632812 348.515625 C 568.160156 348.515625 568.683594 348.304688 569.105469 347.886719 C 569.945312 347.046875 569.945312 345.730469 569.105469 344.890625 C 558.757812 334.546875 556.394531 318.894531 563.277344 305.921875 Z M 563.277344 305.921875 " fill-opacity="1" fill-rule="nonzero"/><path fill="#000000" d="M 613.851562 376.613281 C 613.484375 375.511719 612.277344 374.933594 611.171875 375.300781 C 590.480469 382.390625 568.054688 377.191406 552.613281 361.75 C 541.898438 351.035156 536.019531 336.804688 536.019531 321.625 C 536.019531 306.5 541.898438 292.214844 552.613281 281.5 C 563.328125 270.785156 577.5625 264.902344 592.738281 264.902344 C 607.863281 264.902344 622.148438 270.785156 632.863281 281.5 C 648.671875 297.308594 653.714844 320.996094 645.730469 341.84375 C 645.3125 342.949219 645.835938 344.15625 646.941406 344.578125 C 648.042969 344.996094 649.25 344.472656 649.671875 343.367188 C 658.230469 320.941406 652.769531 295.523438 635.804688 278.558594 C 624.304688 267.058594 609.019531 260.703125 592.738281 260.703125 C 576.457031 260.703125 561.175781 267.058594 549.671875 278.558594 C 538.171875 290.0625 531.816406 305.34375 531.816406 321.625 C 531.816406 337.90625 538.171875 353.191406 549.671875 364.691406 C 557.867188 372.886719 568.210938 378.558594 579.503906 381.078125 C 583.863281 382.074219 588.328125 382.546875 592.792969 382.546875 C 599.515625 382.546875 606.183594 381.445312 612.589844 379.238281 C 613.640625 378.925781 614.273438 377.714844 613.851562 376.613281 Z M 613.851562 376.613281 " fill-opacity="1" fill-rule="nonzero"/><g clip-path="url(#c295eef247)"><path fill="#000000" d="M 581.394531 434.910156 C 581.710938 435.070312 582.023438 435.171875 582.394531 435.171875 C 582.917969 435.171875 583.496094 434.964844 583.863281 434.542969 L 609.914062 408.492188 C 610.753906 407.652344 610.753906 406.339844 609.914062 405.5 C 609.074219 404.660156 607.761719 404.660156 606.917969 405.5 L 585.703125 426.769531 L 586.804688 420.992188 C 586.910156 420.308594 586.699219 419.628906 586.226562 419.101562 C 585.753906 418.628906 585.019531 418.417969 584.335938 418.523438 L 574.882812 420.308594 L 576.667969 410.855469 C 576.773438 410.175781 576.5625 409.492188 576.089844 408.964844 C 575.617188 408.492188 574.882812 408.285156 574.199219 408.386719 L 564.746094 410.175781 L 566.53125 400.71875 C 566.636719 400.039062 566.425781 399.355469 565.953125 398.828125 C 565.480469 398.355469 564.746094 398.148438 564.0625 398.253906 L 554.609375 400.039062 L 556.394531 390.585938 C 556.5 389.902344 556.289062 389.21875 555.816406 388.695312 C 555.34375 388.222656 554.609375 388.011719 553.925781 388.117188 L 544.472656 389.902344 L 546.257812 380.449219 C 546.363281 379.765625 546.152344 379.082031 545.679688 378.558594 C 545.207031 378.085938 544.472656 377.875 543.789062 377.980469 L 534.335938 379.765625 L 536.121094 370.3125 C 536.226562 369.628906 536.015625 368.945312 535.542969 368.421875 C 535.070312 367.949219 534.335938 367.738281 533.652344 367.84375 L 524.199219 369.628906 L 525.984375 360.175781 C 526.089844 359.492188 525.882812 358.808594 525.410156 358.285156 C 524.9375 357.8125 524.199219 357.601562 523.519531 357.707031 L 514.0625 359.492188 L 515.851562 350.039062 C 515.953125 349.355469 515.746094 348.671875 515.273438 348.148438 C 514.800781 347.675781 514.0625 347.464844 513.382812 347.570312 L 503.929688 349.355469 L 505.714844 339.902344 C 505.820312 339.21875 505.609375 338.535156 505.136719 338.011719 C 504.664062 337.539062 503.929688 337.328125 503.246094 337.433594 L 493.792969 339.21875 L 495.578125 329.765625 C 495.683594 329.082031 495.472656 328.402344 495 327.875 C 494.527344 327.402344 493.792969 327.191406 493.109375 327.296875 L 487.332031 328.402344 L 599.828125 216.585938 L 598.726562 222.363281 C 598.621094 223.046875 598.832031 223.726562 599.304688 224.253906 C 599.777344 224.726562 600.511719 224.988281 601.195312 224.832031 L 610.648438 223.046875 L 608.863281 232.5 C 608.757812 233.183594 608.96875 233.863281 609.441406 234.390625 C 609.914062 234.863281 610.648438 235.125 611.332031 234.96875 L 620.785156 233.183594 L 619 242.636719 C 618.894531 243.316406 619.105469 244 619.578125 244.527344 C 620.050781 245 620.785156 245.207031 621.46875 245.105469 L 630.921875 243.316406 L 629.136719 252.773438 C 629.03125 253.453125 629.242188 254.136719 629.714844 254.664062 C 630.1875 255.136719 630.921875 255.398438 631.605469 255.238281 L 641.058594 253.453125 L 639.273438 262.90625 C 639.167969 263.589844 639.378906 264.273438 639.851562 264.796875 C 640.324219 265.273438 641.058594 265.480469 641.742188 265.375 L 651.195312 263.589844 L 649.410156 273.042969 C 649.304688 273.726562 649.511719 274.410156 649.984375 274.933594 C 650.457031 275.40625 651.195312 275.617188 651.875 275.511719 L 661.332031 273.726562 L 659.542969 283.179688 C 659.441406 283.863281 659.648438 284.546875 660.121094 285.070312 C 660.59375 285.542969 661.332031 285.753906 662.011719 285.648438 L 671.464844 283.863281 L 669.679688 293.316406 C 669.574219 294 669.785156 294.683594 670.257812 295.207031 C 670.730469 295.679688 671.464844 295.890625 672.148438 295.785156 L 681.601562 294 L 679.816406 303.453125 C 679.710938 304.136719 679.921875 304.820312 680.394531 305.34375 C 680.867188 305.816406 681.601562 306.027344 682.285156 305.921875 L 691.738281 304.136719 L 689.953125 313.589844 C 689.847656 314.273438 690.058594 314.957031 690.53125 315.480469 C 691.003906 315.953125 691.738281 316.164062 692.421875 316.058594 L 698.199219 314.957031 L 683.964844 329.1875 C 683.125 330.027344 683.125 331.339844 683.964844 332.183594 C 684.808594 333.023438 686.121094 333.023438 686.960938 332.183594 L 706.023438 313.117188 C 706.65625 312.488281 706.8125 311.488281 706.390625 310.648438 C 705.972656 309.808594 705.027344 309.386719 704.132812 309.546875 L 694.679688 311.332031 L 696.464844 301.878906 C 696.570312 301.195312 696.359375 300.511719 695.886719 299.988281 C 695.414062 299.515625 694.679688 299.304688 693.996094 299.410156 L 684.542969 301.195312 L 686.328125 291.742188 C 686.433594 291.058594 686.226562 290.375 685.753906 289.851562 C 685.28125 289.378906 684.542969 289.117188 683.863281 289.273438 L 674.40625 291.058594 L 676.195312 281.605469 C 676.296875 280.921875 676.089844 280.238281 675.617188 279.714844 C 675.144531 279.242188 674.40625 279.03125 673.726562 279.136719 L 664.273438 280.921875 L 666.058594 271.46875 C 666.164062 270.785156 665.953125 270.101562 665.480469 269.578125 C 665.007812 269.105469 664.273438 268.894531 663.589844 269 L 654.136719 270.785156 L 655.921875 261.332031 C 656.027344 260.648438 655.816406 259.96875 655.34375 259.441406 C 654.871094 258.96875 654.136719 258.707031 653.453125 258.863281 L 644 260.648438 L 645.785156 251.195312 C 645.890625 250.511719 645.679688 249.832031 645.207031 249.304688 C 644.734375 248.832031 644 248.621094 643.316406 248.726562 L 633.863281 250.511719 L 635.648438 241.058594 C 635.753906 240.378906 635.542969 239.695312 635.070312 239.167969 C 634.597656 238.695312 633.863281 238.484375 633.179688 238.589844 L 623.726562 240.378906 L 625.511719 230.921875 C 625.617188 230.242188 625.40625 229.558594 624.933594 229.03125 C 624.460938 228.558594 623.726562 228.296875 623.042969 228.453125 L 613.589844 230.242188 L 615.375 220.785156 C 615.480469 220.105469 615.269531 219.421875 614.796875 218.894531 C 614.324219 218.371094 613.589844 218.214844 612.90625 218.320312 L 603.453125 220.105469 L 605.238281 210.652344 C 605.398438 209.757812 604.976562 208.8125 604.136719 208.390625 C 603.296875 207.972656 602.296875 208.128906 601.667969 208.761719 L 479.875 330.554688 C 479.242188 331.183594 479.085938 332.183594 479.507812 333.023438 C 479.925781 333.863281 480.871094 334.28125 481.765625 334.125 L 491.21875 332.339844 L 489.433594 341.792969 C 489.328125 342.476562 489.539062 343.160156 490.011719 343.683594 C 490.484375 344.15625 491.21875 344.367188 491.902344 344.261719 L 501.355469 342.476562 L 499.570312 351.929688 C 499.464844 352.613281 499.671875 353.296875 500.144531 353.820312 C 500.621094 354.292969 501.355469 354.503906 502.039062 354.398438 L 511.492188 352.613281 L 509.707031 362.066406 C 509.601562 362.75 509.808594 363.429688 510.28125 363.957031 C 510.753906 364.429688 511.492188 364.640625 512.171875 364.535156 L 521.628906 362.75 L 519.839844 372.203125 C 519.738281 372.886719 519.945312 373.566406 520.417969 374.09375 C 520.890625 374.566406 521.628906 374.777344 522.308594 374.671875 L 531.761719 372.886719 L 529.976562 382.339844 C 529.871094 383.019531 530.082031 383.703125 530.554688 384.230469 C 531.027344 384.703125 531.761719 384.910156 532.445312 384.808594 L 541.898438 383.019531 L 540.113281 392.476562 C 540.007812 393.15625 540.21875 393.839844 540.691406 394.367188 C 541.164062 394.839844 541.898438 395.101562 542.582031 394.945312 L 552.035156 393.15625 L 550.25 402.609375 C 550.144531 403.292969 550.355469 403.976562 550.828125 404.503906 C 551.300781 404.976562 552.035156 405.183594 552.71875 405.078125 L 562.171875 403.292969 L 560.386719 412.746094 C 560.28125 413.429688 560.492188 414.113281 560.964844 414.636719 C 561.4375 415.109375 562.171875 415.320312 562.855469 415.214844 L 572.308594 413.429688 L 570.523438 422.882812 C 570.417969 423.566406 570.628906 424.25 571.101562 424.773438 C 571.574219 425.246094 572.308594 425.511719 572.992188 425.351562 L 582.445312 423.566406 L 580.660156 433.019531 C 580.132812 433.597656 580.554688 434.492188 581.394531 434.910156 Z M 581.394531 434.910156 " fill-opacity="1" fill-rule="nonzero"/></g></svg>