<svg xmlns="http://www.w3.org/2000/svg" xmlns:xlink="http://www.w3.org/1999/xlink" width="1080" zoomAndPan="magnify" viewBox="0 0 810 809.999993" height="1080" preserveAspectRatio="xMidYMid meet" version="1.0"><path fill="#5ac3b2" d="M 182.160156 632.902344 C 277.019531 632.902344 354.992188 705.222656 363.941406 797.738281 C 364.398438 802.457031 362.988281 806.695312 359.796875 810.210938 C 356.605469 813.726562 352.523438 815.535156 347.777344 815.535156 L 16.546875 815.535156 C 11.800781 815.535156 7.714844 813.726562 4.523438 810.210938 C 1.335938 806.699219 -0.0742188 802.460938 0.382812 797.738281 C 9.332031 705.222656 87.300781 632.902344 182.160156 632.902344 Z M 182.164062 431.988281 C 233.160156 431.988281 274.5 473.332031 274.5 524.328125 C 274.5 575.324219 233.15625 616.667969 182.164062 616.667969 C 131.164062 616.667969 89.824219 575.324219 89.824219 524.328125 C 89.824219 473.332031 131.164062 431.988281 182.164062 431.988281 Z M 622.101562 632.902344 C 716.960938 632.902344 794.933594 705.222656 803.878906 797.738281 C 804.339844 802.457031 802.929688 806.695312 799.738281 810.210938 C 796.550781 813.726562 792.464844 815.535156 787.71875 815.535156 L 456.488281 815.535156 C 451.742188 815.535156 447.65625 813.726562 444.464844 810.210938 C 441.277344 806.699219 439.867188 802.460938 440.324219 797.738281 C 449.273438 705.222656 527.242188 632.902344 622.101562 632.902344 Z M 622.101562 431.988281 C 673.101562 431.988281 714.441406 473.332031 714.441406 524.328125 C 714.441406 575.324219 673.101562 616.667969 622.101562 616.667969 C 571.105469 616.667969 529.765625 575.324219 529.765625 524.328125 C 529.765625 473.332031 571.109375 431.988281 622.101562 431.988281 Z M 406.472656 371.535156 C 428.199219 375.902344 451.136719 376.109375 474.21875 371.4375 C 502.960938 365.625 528.554688 352.929688 549.644531 335.425781 L 602.535156 353.976562 C 605.71875 355.089844 609.074219 354.214844 611.308594 351.6875 C 613.539062 349.160156 613.992188 345.71875 612.488281 342.699219 L 587.152344 291.777344 C 608.511719 256.316406 617.175781 213.074219 608.320312 169.300781 C 595.332031 105.128906 548.089844 56.636719 489.488281 39.007812 C 533.253906 80.492188 557.523438 141.460938 549.648438 205.777344 C 539.679688 287.183594 481.03125 350.96875 406.472656 371.535156 Z M 375.265625 11.613281 C 469.296875 23.128906 536.1875 108.6875 524.671875 202.71875 C 513.160156 296.746094 427.601562 363.640625 333.570312 352.125 C 304.464844 348.5625 277.960938 337.894531 255.574219 322.085938 L 204.285156 344.691406 C 201.199219 346.050781 197.78125 345.4375 195.359375 343.089844 C 192.9375 340.742188 192.222656 337.347656 193.484375 334.222656 L 214.789062 281.484375 C 190.738281 247.792969 178.734375 205.347656 184.164062 161.023438 C 195.675781 66.992188 281.234375 0.101562 375.265625 11.613281 Z M 354.234375 165.636719 C 345.269531 165.636719 338 172.90625 338 181.871094 C 338 190.835938 345.269531 198.105469 354.234375 198.105469 C 363.199219 198.105469 370.46875 190.835938 370.46875 181.871094 C 370.46875 172.902344 363.199219 165.636719 354.234375 165.636719 Z M 280.300781 165.636719 C 271.335938 165.636719 264.066406 172.90625 264.066406 181.871094 C 264.066406 190.835938 271.335938 198.105469 280.300781 198.105469 C 289.269531 198.105469 296.535156 190.835938 296.535156 181.871094 C 296.535156 172.902344 289.269531 165.636719 280.300781 165.636719 Z M 428.535156 165.636719 C 437.5 165.636719 444.765625 172.90625 444.765625 181.871094 C 444.765625 190.835938 437.5 198.105469 428.535156 198.105469 C 419.570312 198.105469 412.300781 190.835938 412.300781 181.871094 C 412.300781 172.902344 419.570312 165.636719 428.535156 165.636719 Z M 428.535156 165.636719 " fill-opacity="1" fill-rule="evenodd"/></svg>