<svg xmlns="http://www.w3.org/2000/svg" xmlns:xlink="http://www.w3.org/1999/xlink" width="1080" zoomAndPan="magnify" viewBox="0 0 810 809.999993" height="1080" preserveAspectRatio="xMidYMid meet" version="1.0"><defs><clipPath id="9a943c2597"><path d="M 107.214844 156.640625 L 702.714844 156.640625 L 702.714844 653.140625 L 107.214844 653.140625 Z M 107.214844 156.640625 " clip-rule="nonzero"/></clipPath></defs><g clip-path="url(#9a943c2597)"><path fill="#5ac3b2" d="M 702.738281 288.980469 C 702.738281 284.726562 699.289062 281.277344 695.03125 281.277344 L 651.382812 281.277344 L 651.382812 259.75 C 651.382812 255.492188 647.933594 252.042969 643.675781 252.042969 L 500.4375 252.042969 L 500.4375 241.066406 C 500.4375 237.808594 498.382812 234.898438 495.308594 233.808594 L 477.835938 227.59375 L 473.816406 217.890625 L 481.78125 201.140625 C 483.179688 198.195312 482.574219 194.6875 480.269531 192.382812 L 464.695312 176.808594 C 462.390625 174.503906 458.882812 173.898438 455.9375 175.300781 L 439.1875 183.261719 L 429.488281 179.246094 L 423.273438 161.769531 C 422.179688 158.699219 419.273438 156.644531 416.011719 156.644531 L 393.988281 156.644531 C 390.726562 156.644531 387.816406 158.695312 386.726562 161.769531 L 380.511719 179.246094 L 370.8125 183.261719 L 354.0625 175.300781 C 351.117188 173.898438 347.609375 174.503906 345.304688 176.808594 L 329.730469 192.382812 C 327.425781 194.6875 326.820312 198.195312 328.21875 201.140625 L 336.183594 217.890625 L 332.164062 227.59375 L 314.6875 233.808594 C 311.617188 234.898438 309.5625 237.808594 309.5625 241.066406 L 309.5625 252.042969 L 166.3125 252.042969 C 162.058594 252.042969 158.605469 255.492188 158.605469 259.75 L 158.605469 281.277344 L 114.960938 281.277344 C 110.703125 281.277344 107.253906 284.726562 107.253906 288.980469 L 107.253906 626.292969 C 107.253906 630.550781 110.703125 634 114.960938 634 L 364.457031 634 C 367.367188 634 370.082031 635.296875 371.910156 637.558594 C 380.027344 647.597656 392.085938 653.355469 404.996094 653.355469 C 417.902344 653.355469 429.960938 647.597656 438.078125 637.558594 C 439.90625 635.296875 442.625 634 445.53125 634 L 695.03125 634 C 699.285156 634 702.738281 630.550781 702.738281 626.292969 C 702.738281 625.980469 702.714844 625.667969 702.679688 625.359375 C 702.714844 625.054688 702.738281 624.742188 702.738281 624.425781 Z M 635.96875 566.234375 L 438.355469 566.234375 C 431.699219 566.234375 425.480469 569.203125 421.296875 574.378906 L 412.703125 585.007812 L 412.703125 347.515625 L 416.007812 347.515625 C 419.269531 347.515625 422.179688 345.464844 423.269531 342.390625 L 429.484375 324.917969 L 439.183594 320.898438 L 455.933594 328.863281 C 458.878906 330.261719 462.386719 329.65625 464.691406 327.351562 L 480.265625 311.777344 C 482.570312 309.472656 483.175781 305.964844 481.773438 303.019531 L 473.8125 286.269531 L 477.828125 276.570312 L 495.304688 270.355469 C 496.875 269.800781 498.175781 268.765625 499.074219 267.460938 L 635.964844 267.460938 L 635.964844 566.234375 Z M 324.96875 246.503906 L 340.546875 240.964844 C 342.601562 240.238281 344.25 238.667969 345.085938 236.65625 L 351.722656 220.625 C 352.558594 218.609375 352.5 216.335938 351.5625 214.367188 L 344.46875 199.433594 L 352.347656 191.550781 L 367.28125 198.648438 C 369.25 199.582031 371.527344 199.640625 373.539062 198.804688 L 389.570312 192.167969 C 391.585938 191.332031 393.152344 189.683594 393.882812 187.628906 L 399.421875 172.050781 L 410.570312 172.050781 L 416.109375 187.628906 C 416.835938 189.683594 418.40625 191.332031 420.417969 192.167969 L 436.449219 198.804688 C 438.464844 199.640625 440.738281 199.582031 442.707031 198.648438 L 457.640625 191.550781 L 465.523438 199.433594 L 458.425781 214.363281 C 457.488281 216.332031 457.433594 218.605469 458.265625 220.621094 L 464.90625 236.652344 C 465.742188 238.667969 467.390625 240.234375 469.445312 240.964844 L 485.019531 246.503906 L 485.019531 257.652344 L 469.445312 263.191406 C 467.390625 263.917969 465.742188 265.488281 464.90625 267.5 L 458.265625 283.53125 C 457.433594 285.546875 457.488281 287.820312 458.425781 289.789062 L 465.523438 304.722656 L 457.640625 312.605469 L 442.707031 305.507812 C 440.738281 304.570312 438.464844 304.511719 436.449219 305.347656 L 420.417969 311.988281 C 418.402344 312.824219 416.835938 314.472656 416.109375 316.527344 L 410.570312 332.101562 L 399.421875 332.101562 L 393.882812 316.527344 C 393.152344 314.472656 391.585938 312.824219 389.570312 311.988281 L 373.539062 305.347656 C 371.527344 304.511719 369.25 304.570312 367.28125 305.507812 L 352.347656 312.605469 L 344.46875 304.722656 L 351.5625 289.789062 C 352.5 287.820312 352.558594 285.546875 351.722656 283.53125 L 345.085938 267.5 C 344.25 265.484375 342.601562 263.917969 340.546875 263.1875 L 324.96875 257.648438 Z M 174.023438 267.453125 L 310.914062 267.453125 C 311.8125 268.765625 313.113281 269.792969 314.683594 270.351562 L 332.15625 276.566406 L 336.175781 286.265625 L 328.210938 303.015625 C 326.8125 305.960938 327.417969 309.46875 329.722656 311.773438 L 345.296875 327.347656 C 347.601562 329.652344 351.109375 330.257812 354.054688 328.855469 L 370.804688 320.894531 L 380.503906 324.910156 L 386.71875 342.386719 C 387.8125 345.457031 390.71875 347.511719 393.980469 347.511719 L 397.285156 347.511719 L 397.285156 585.003906 L 388.691406 574.371094 C 384.507812 569.195312 378.289062 566.226562 371.632812 566.226562 L 174.023438 566.226562 Z M 426.09375 627.867188 C 420.917969 634.269531 413.226562 637.941406 404.996094 637.941406 C 396.761719 637.941406 389.070312 634.269531 383.898438 627.867188 C 379.128906 621.96875 372.042969 618.585938 364.457031 618.585938 L 122.664062 618.585938 L 122.664062 296.6875 L 158.605469 296.6875 L 158.605469 573.941406 C 158.605469 578.195312 162.058594 581.644531 166.3125 581.644531 L 371.632812 581.644531 C 373.613281 581.644531 375.464844 582.53125 376.707031 584.066406 L 399 611.640625 C 400.464844 613.449219 402.664062 614.5 404.992188 614.5 C 407.320312 614.5 409.523438 613.449219 410.984375 611.640625 L 433.277344 584.066406 C 434.523438 582.527344 436.375 581.644531 438.351562 581.644531 L 643.675781 581.644531 C 647.929688 581.644531 651.382812 578.195312 651.382812 573.941406 L 651.382812 296.6875 L 687.324219 296.6875 L 687.324219 618.585938 L 445.53125 618.585938 C 437.945312 618.585938 430.863281 621.96875 426.09375 627.867188 Z M 426.09375 627.867188 " fill-opacity="1" fill-rule="nonzero"/></g><path fill="#5ac3b2" d="M 404.996094 293.089844 C 427.609375 293.089844 446.007812 274.691406 446.007812 252.078125 C 446.007812 229.464844 427.609375 211.066406 404.996094 211.066406 C 382.378906 211.066406 363.980469 229.464844 363.980469 252.078125 C 363.980469 274.691406 382.378906 293.089844 404.996094 293.089844 Z M 404.996094 226.480469 C 419.109375 226.480469 430.59375 237.964844 430.59375 252.078125 C 430.59375 266.191406 419.109375 277.675781 404.996094 277.675781 C 390.878906 277.675781 379.394531 266.191406 379.394531 252.078125 C 379.394531 237.964844 390.878906 226.480469 404.996094 226.480469 Z M 404.996094 226.480469 " fill-opacity="1" fill-rule="nonzero"/><path fill="#5ac3b2" d="M 214.320312 361.910156 C 215.769531 363.359375 217.726562 364.171875 219.773438 364.171875 C 221.816406 364.171875 223.777344 363.359375 225.222656 361.910156 L 258.527344 328.605469 C 261.535156 325.597656 261.535156 320.71875 258.527344 317.707031 C 255.515625 314.699219 250.636719 314.699219 247.628906 317.707031 L 219.773438 345.566406 L 208.667969 334.460938 C 205.65625 331.449219 200.777344 331.449219 197.769531 334.460938 C 194.761719 337.46875 194.761719 342.351562 197.769531 345.359375 Z M 214.320312 361.910156 " fill-opacity="1" fill-rule="nonzero"/><path fill="#5ac3b2" d="M 354.757812 339.773438 L 266.496094 339.773438 C 262.242188 339.773438 258.792969 343.222656 258.792969 347.480469 C 258.792969 351.734375 262.242188 355.183594 266.496094 355.183594 L 354.757812 355.183594 C 359.011719 355.183594 362.460938 351.734375 362.460938 347.480469 C 362.460938 343.222656 359.011719 339.773438 354.757812 339.773438 Z M 354.757812 339.773438 " fill-opacity="1" fill-rule="nonzero"/><path fill="#5ac3b2" d="M 214.320312 438.722656 C 215.828125 440.226562 217.800781 440.980469 219.773438 440.980469 C 221.746094 440.980469 223.71875 440.226562 225.222656 438.722656 L 258.527344 405.417969 C 261.535156 402.410156 261.535156 397.527344 258.527344 394.519531 C 255.515625 391.507812 250.636719 391.507812 247.628906 394.519531 L 219.773438 422.375 L 208.667969 411.269531 C 205.65625 408.261719 200.777344 408.261719 197.769531 411.269531 C 194.761719 414.277344 194.761719 419.160156 197.769531 422.167969 Z M 214.320312 438.722656 " fill-opacity="1" fill-rule="nonzero"/><path fill="#5ac3b2" d="M 354.757812 416.582031 L 266.496094 416.582031 C 262.242188 416.582031 258.792969 420.035156 258.792969 424.289062 C 258.792969 428.542969 262.242188 431.996094 266.496094 431.996094 L 354.757812 431.996094 C 359.011719 431.996094 362.460938 428.542969 362.460938 424.289062 C 362.460938 420.035156 359.011719 416.582031 354.757812 416.582031 Z M 354.757812 416.582031 " fill-opacity="1" fill-rule="nonzero"/><path fill="#5ac3b2" d="M 258.527344 471.328125 C 255.515625 468.316406 250.636719 468.316406 247.628906 471.328125 L 219.773438 499.179688 L 208.667969 488.078125 C 205.65625 485.066406 200.777344 485.066406 197.769531 488.078125 C 194.761719 491.085938 194.761719 495.964844 197.769531 498.976562 L 214.320312 515.527344 C 215.828125 517.035156 217.800781 517.785156 219.773438 517.785156 C 221.746094 517.785156 223.71875 517.035156 225.222656 515.527344 L 258.527344 482.222656 C 261.535156 479.214844 261.535156 474.335938 258.527344 471.328125 Z M 258.527344 471.328125 " fill-opacity="1" fill-rule="nonzero"/><path fill="#5ac3b2" d="M 354.757812 493.390625 L 266.496094 493.390625 C 262.242188 493.390625 258.792969 496.839844 258.792969 501.097656 C 258.792969 505.351562 262.242188 508.804688 266.496094 508.804688 L 354.757812 508.804688 C 359.011719 508.804688 362.460938 505.351562 362.460938 501.097656 C 362.460938 496.839844 359.011719 493.390625 354.757812 493.390625 Z M 354.757812 493.390625 " fill-opacity="1" fill-rule="nonzero"/><path fill="#5ac3b2" d="M 490.371094 317.707031 L 462.511719 345.566406 L 451.410156 334.460938 C 448.398438 331.449219 443.519531 331.449219 440.511719 334.460938 C 437.5 337.46875 437.5 342.351562 440.511719 345.359375 L 457.0625 361.910156 C 458.507812 363.359375 460.46875 364.171875 462.511719 364.171875 C 464.558594 364.171875 466.519531 363.359375 467.964844 361.910156 L 501.269531 328.605469 C 504.277344 325.597656 504.277344 320.71875 501.269531 317.707031 C 498.257812 314.699219 493.378906 314.699219 490.371094 317.707031 Z M 490.371094 317.707031 " fill-opacity="1" fill-rule="nonzero"/><path fill="#5ac3b2" d="M 509.242188 355.1875 L 597.5 355.1875 C 601.753906 355.1875 605.207031 351.738281 605.207031 347.480469 C 605.207031 343.226562 601.753906 339.773438 597.5 339.773438 L 509.242188 339.773438 C 504.984375 339.773438 501.535156 343.226562 501.535156 347.480469 C 501.535156 351.738281 504.984375 355.1875 509.242188 355.1875 Z M 509.242188 355.1875 " fill-opacity="1" fill-rule="nonzero"/><path fill="#5ac3b2" d="M 457.066406 438.722656 C 458.570312 440.226562 460.542969 440.980469 462.515625 440.980469 C 464.488281 440.980469 466.460938 440.226562 467.964844 438.722656 L 501.269531 405.417969 C 504.28125 402.410156 504.28125 397.527344 501.269531 394.519531 C 498.257812 391.507812 493.378906 391.507812 490.371094 394.519531 L 462.515625 422.375 L 451.410156 411.269531 C 448.398438 408.261719 443.519531 408.261719 440.511719 411.269531 C 437.503906 414.28125 437.5 419.160156 440.511719 422.167969 Z M 457.066406 438.722656 " fill-opacity="1" fill-rule="nonzero"/><path fill="#5ac3b2" d="M 597.5 416.582031 L 509.242188 416.582031 C 504.988281 416.582031 501.535156 420.035156 501.535156 424.289062 C 501.535156 428.542969 504.988281 431.996094 509.242188 431.996094 L 597.5 431.996094 C 601.757812 431.996094 605.207031 428.542969 605.207031 424.289062 C 605.207031 420.035156 601.757812 416.582031 597.5 416.582031 Z M 597.5 416.582031 " fill-opacity="1" fill-rule="nonzero"/><path fill="#5ac3b2" d="M 501.269531 471.328125 C 498.257812 468.316406 493.378906 468.316406 490.371094 471.328125 L 462.511719 499.179688 L 451.410156 488.078125 C 448.398438 485.066406 443.519531 485.066406 440.511719 488.078125 C 437.5 491.085938 437.5 495.964844 440.511719 498.976562 L 457.0625 515.527344 C 458.570312 517.035156 460.539062 517.785156 462.511719 517.785156 C 464.484375 517.785156 466.457031 517.035156 467.964844 515.527344 L 501.269531 482.222656 C 504.277344 479.214844 504.277344 474.335938 501.269531 471.328125 Z M 501.269531 471.328125 " fill-opacity="1" fill-rule="nonzero"/><path fill="#5ac3b2" d="M 597.5 493.390625 L 509.242188 493.390625 C 504.988281 493.390625 501.535156 496.839844 501.535156 501.097656 C 501.535156 505.351562 504.988281 508.804688 509.242188 508.804688 L 597.5 508.804688 C 601.757812 508.804688 605.207031 505.351562 605.207031 501.097656 C 605.207031 496.839844 601.757812 493.390625 597.5 493.390625 Z M 597.5 493.390625 " fill-opacity="1" fill-rule="nonzero"/></svg>