<svg xmlns="http://www.w3.org/2000/svg" xmlns:xlink="http://www.w3.org/1999/xlink" width="1080" zoomAndPan="magnify" viewBox="0 0 810 809.999993" height="1080" preserveAspectRatio="xMidYMid meet" version="1.0"><defs><clipPath id="7c93c3f5ac"><path d="M 256 367 L 311 367 L 311 729 L 256 729 Z M 256 367 " clip-rule="nonzero"/></clipPath></defs><path fill="#5ac3b2" d="M 419.136719 405.5625 C 419.136719 405.5625 639.230469 494.652344 433.21875 624.03125 C 500.765625 572.917969 541.496094 496 419.136719 405.5625 Z M 419.136719 405.5625 " fill-opacity="1" fill-rule="evenodd"/><g clip-path="url(#7c93c3f5ac)"><path fill="#5ac3b2" d="M 256.210938 367.019531 C 381.882812 476.644531 215.140625 570.058594 310.460938 729.449219 C 256.769531 647.59375 245.605469 596.652344 265.074219 513.785156 C 284.542969 430.976562 289.3125 424.410156 256.210938 367.019531 Z M 256.210938 367.019531 " fill-opacity="1" fill-rule="evenodd"/></g><path fill="#5ac3b2" d="M 260.023438 309.902344 C 190.230469 386.710938 170.875 410.667969 249.140625 481.246094 C 249.140625 481.246094 173.007812 443.710938 173.007812 405.617188 C 173.007812 367.578125 260.023438 309.902344 260.023438 309.902344 Z M 260.023438 309.902344 " fill-opacity="1" fill-rule="evenodd"/><path fill="#5ac3b2" d="M 409.542969 321.574219 C 409.542969 321.574219 489.378906 347.550781 420.371094 402.925781 C 430.75 382.613281 449.152344 354.167969 409.542969 321.574219 Z M 409.542969 321.574219 " fill-opacity="1" fill-rule="evenodd"/><path fill="#5ac3b2" d="M 416.554688 607.421875 C 335.148438 564.054688 385.808594 508.792969 416.554688 543.96875 C 447.242188 508.792969 497.90625 564.054688 416.554688 607.421875 Z M 416.554688 607.421875 " fill-opacity="1" fill-rule="evenodd"/><path fill="#5ac3b2" d="M 275.675781 292.230469 C 275.675781 292.230469 305.636719 271.25 281.960938 227.039062 C 270.964844 198.03125 278.539062 193.488281 278.539062 193.488281 C 244.988281 153.316406 314.726562 118.253906 325.105469 154.609375 C 346.535156 155.730469 418.6875 171.777344 409.652344 201.679688 C 400.675781 231.582031 351.023438 240 351.023438 240 C 351.023438 240 389.679688 240 400.675781 233.265625 C 390.523438 267.378906 374.140625 293.578125 347.941406 297.839844 C 321.683594 302.050781 316.351562 277.25 316.351562 277.25 C 316.351562 277.25 321.121094 308.277344 354.390625 305.414062 C 387.660156 302.609375 407.96875 269.621094 419.246094 235.230469 C 435.070312 216.042969 444.382812 189.5625 408.8125 159.378906 C 373.296875 129.191406 333.800781 136.824219 333.800781 136.824219 C 319.382812 81.28125 216.207031 138.226562 261.933594 194.328125 C 265.074219 242.972656 299.691406 249.703125 275.675781 292.230469 Z M 275.675781 292.230469 " fill-opacity="1" fill-rule="evenodd"/></svg>