<svg xmlns="http://www.w3.org/2000/svg" xmlns:xlink="http://www.w3.org/1999/xlink" width="1080" zoomAndPan="magnify" viewBox="0 0 810 809.999993" height="1080" preserveAspectRatio="xMidYMid meet" version="1.0"><path fill="#5ac3b2" d="M 284.640625 84.722656 L 244.65625 121.011719 L 244.65625 119.855469 C 244.65625 98.570312 227.339844 81.253906 206.050781 81.253906 L 119.730469 81.253906 C 98.445312 81.253906 81.125 98.570312 81.125 119.859375 L 81.125 206.179688 C 81.125 227.464844 98.445312 244.785156 119.730469 244.785156 L 206.050781 244.785156 C 227.339844 244.785156 244.65625 227.464844 244.65625 206.179688 L 244.65625 148.34375 L 298.242188 99.714844 C 302.382812 95.957031 302.691406 89.558594 298.9375 85.417969 C 295.179688 81.277344 288.78125 80.964844 284.640625 84.722656 Z M 224.414062 206.179688 C 224.414062 216.304688 216.179688 224.542969 206.050781 224.542969 L 119.730469 224.542969 C 109.605469 224.542969 101.367188 216.304688 101.367188 206.179688 L 101.367188 119.859375 C 101.367188 109.730469 109.605469 101.496094 119.730469 101.496094 L 206.050781 101.496094 C 216.175781 101.496094 224.414062 109.730469 224.414062 119.859375 L 224.414062 139.378906 L 189.988281 170.625 L 154.894531 135.53125 C 150.941406 131.578125 144.535156 131.578125 140.582031 135.53125 C 136.628906 139.484375 136.628906 145.890625 140.582031 149.84375 L 182.492188 191.753906 C 184.464844 193.726562 187.054688 194.71875 189.652344 194.71875 C 192.082031 194.71875 194.519531 193.847656 196.453125 192.09375 L 224.417969 166.714844 L 224.417969 206.179688 Z M 284.640625 326.832031 L 244.65625 363.117188 L 244.65625 361.964844 C 244.65625 340.679688 227.335938 323.359375 206.050781 323.359375 L 119.730469 323.359375 C 98.445312 323.359375 81.125 340.679688 81.125 361.964844 L 81.125 448.285156 C 81.125 469.574219 98.445312 486.890625 119.730469 486.890625 L 206.050781 486.890625 C 227.339844 486.890625 244.65625 469.574219 244.65625 448.285156 L 244.65625 390.453125 L 298.242188 341.820312 C 302.382812 338.066406 302.691406 331.664062 298.9375 327.527344 C 295.179688 323.386719 288.78125 323.074219 284.640625 326.832031 Z M 224.414062 448.285156 C 224.414062 458.414062 216.179688 466.648438 206.050781 466.648438 L 119.730469 466.648438 C 109.605469 466.648438 101.367188 458.414062 101.367188 448.285156 L 101.367188 361.964844 C 101.367188 351.839844 109.605469 343.601562 119.730469 343.601562 L 206.050781 343.601562 C 216.175781 343.601562 224.414062 351.839844 224.414062 361.964844 L 224.414062 381.488281 L 189.988281 412.730469 L 154.894531 377.640625 C 150.941406 373.6875 144.535156 373.6875 140.582031 377.640625 C 136.628906 381.59375 136.628906 388 140.582031 391.953125 L 182.492188 433.863281 C 184.464844 435.835938 187.054688 436.828125 189.652344 436.828125 C 192.082031 436.828125 194.519531 435.957031 196.453125 434.203125 L 224.417969 408.824219 L 224.417969 448.285156 Z M 284.640625 568.941406 L 244.65625 605.226562 L 244.65625 604.074219 C 244.65625 582.785156 227.335938 565.46875 206.050781 565.46875 L 119.730469 565.46875 C 98.445312 565.46875 81.125 582.789062 81.125 604.074219 L 81.125 690.394531 C 81.125 711.683594 98.445312 729 119.730469 729 L 206.050781 729 C 227.339844 729 244.65625 711.683594 244.65625 690.394531 L 244.65625 632.558594 L 298.242188 583.929688 C 302.382812 580.171875 302.691406 573.773438 298.9375 569.632812 C 295.179688 565.496094 288.78125 565.183594 284.640625 568.941406 Z M 224.414062 690.394531 C 224.414062 700.519531 216.179688 708.757812 206.050781 708.757812 L 119.730469 708.757812 C 109.605469 708.757812 101.367188 700.519531 101.367188 690.394531 L 101.367188 604.074219 C 101.367188 593.949219 109.605469 585.710938 119.730469 585.710938 L 206.050781 585.710938 C 216.175781 585.710938 224.414062 593.949219 224.414062 604.074219 L 224.414062 623.597656 L 189.988281 654.839844 L 154.894531 619.746094 C 150.941406 615.796875 144.535156 615.796875 140.582031 619.746094 C 136.628906 623.699219 136.628906 630.105469 140.582031 634.0625 L 182.492188 675.972656 C 184.464844 677.941406 187.054688 678.9375 189.652344 678.9375 C 192.082031 678.9375 194.519531 678.066406 196.453125 676.308594 L 224.417969 650.929688 L 224.417969 690.394531 Z M 672.574219 174.828125 C 672.574219 180.417969 668.042969 184.949219 662.453125 184.949219 L 386.023438 184.949219 C 380.433594 184.949219 375.902344 180.417969 375.902344 174.828125 C 375.902344 169.242188 380.433594 164.707031 386.023438 164.707031 L 662.453125 164.707031 C 668.042969 164.707031 672.574219 169.242188 672.574219 174.828125 Z M 699.777344 109.902344 L 348.703125 109.902344 C 332.65625 109.902344 319.605469 122.953125 319.605469 139 L 319.605469 210.660156 C 319.605469 226.707031 332.65625 239.757812 348.703125 239.757812 L 699.777344 239.757812 C 715.820312 239.757812 728.875 226.707031 728.875 210.660156 L 728.875 139 C 728.875 122.953125 715.820312 109.902344 699.777344 109.902344 Z M 708.632812 210.660156 C 708.632812 215.542969 704.660156 219.515625 699.777344 219.515625 L 348.703125 219.515625 C 343.820312 219.515625 339.847656 215.542969 339.847656 210.660156 L 339.847656 139 C 339.847656 134.117188 343.816406 130.144531 348.703125 130.144531 L 699.777344 130.144531 C 704.660156 130.144531 708.632812 134.117188 708.632812 139 Z M 672.574219 405.125 C 672.574219 410.714844 668.042969 415.246094 662.453125 415.246094 L 386.023438 415.246094 C 380.433594 415.246094 375.902344 410.714844 375.902344 405.125 C 375.902344 399.539062 380.433594 395.003906 386.023438 395.003906 L 662.453125 395.003906 C 668.042969 395.003906 672.574219 399.539062 672.574219 405.125 Z M 699.777344 340.199219 L 348.703125 340.199219 C 332.65625 340.199219 319.605469 353.25 319.605469 369.296875 L 319.605469 440.957031 C 319.605469 457.003906 332.65625 470.058594 348.703125 470.058594 L 699.777344 470.058594 C 715.820312 470.058594 728.875 457.003906 728.875 440.957031 L 728.875 369.296875 C 728.875 353.25 715.820312 340.199219 699.777344 340.199219 Z M 708.632812 440.957031 C 708.632812 445.839844 704.660156 449.8125 699.777344 449.8125 L 348.703125 449.8125 C 343.820312 449.8125 339.847656 445.839844 339.847656 440.957031 L 339.847656 369.292969 C 339.847656 364.410156 343.816406 360.4375 348.703125 360.4375 L 699.777344 360.4375 C 704.660156 360.4375 708.632812 364.410156 708.632812 369.292969 Z M 672.574219 635.421875 C 672.574219 641.011719 668.042969 645.542969 662.453125 645.542969 L 386.023438 645.542969 C 380.433594 645.542969 375.902344 641.011719 375.902344 635.421875 C 375.902344 629.832031 380.433594 625.300781 386.023438 625.300781 L 662.453125 625.300781 C 668.042969 625.300781 672.574219 629.832031 672.574219 635.421875 Z M 699.777344 570.496094 L 348.703125 570.496094 C 332.65625 570.496094 319.605469 583.546875 319.605469 599.59375 L 319.605469 671.253906 C 319.605469 687.300781 332.65625 700.355469 348.703125 700.355469 L 699.777344 700.355469 C 715.820312 700.355469 728.875 687.300781 728.875 671.253906 L 728.875 599.59375 C 728.875 583.546875 715.820312 570.496094 699.777344 570.496094 Z M 708.632812 671.253906 C 708.632812 676.136719 704.660156 680.109375 699.777344 680.109375 L 348.703125 680.109375 C 343.820312 680.109375 339.847656 676.136719 339.847656 671.253906 L 339.847656 599.589844 C 339.847656 594.707031 343.816406 590.734375 348.703125 590.734375 L 699.777344 590.734375 C 704.660156 590.734375 708.632812 594.707031 708.632812 599.589844 Z M 708.632812 671.253906 " fill-opacity="1" fill-rule="nonzero"/></svg>