<svg xmlns="http://www.w3.org/2000/svg" xmlns:xlink="http://www.w3.org/1999/xlink" width="1080" zoomAndPan="magnify" viewBox="0 0 810 809.999993" height="1080" preserveAspectRatio="xMidYMid meet" version="1.0"><path fill="#5ac3b2" d="M 704.117188 325.503906 L 684.667969 319.832031 C 683.609375 319.496094 682.601562 319.039062 681.648438 318.464844 C 680.699219 317.886719 679.828125 317.207031 679.039062 316.421875 C 678.25 315.636719 677.5625 314.773438 676.980469 313.824219 C 676.398438 312.875 675.9375 311.871094 675.597656 310.8125 C 671.863281 300.082031 667.507812 289.613281 662.519531 279.402344 C 662.085938 278.453125 661.769531 277.46875 661.570312 276.445312 C 661.371094 275.421875 661.292969 274.390625 661.335938 273.347656 C 661.378906 272.304688 661.542969 271.28125 661.828125 270.277344 C 662.109375 269.273438 662.507812 268.316406 663.019531 267.410156 L 672.636719 249.796875 C 673.53125 248.160156 674.289062 246.460938 674.910156 244.703125 C 675.53125 242.941406 676.007812 241.144531 676.339844 239.308594 C 676.671875 237.472656 676.851562 235.621094 676.886719 233.757812 C 676.921875 231.890625 676.804688 230.035156 676.539062 228.1875 C 676.273438 226.339844 675.863281 224.527344 675.304688 222.746094 C 674.75 220.964844 674.054688 219.242188 673.21875 217.574219 C 672.382812 215.90625 671.421875 214.3125 670.328125 212.800781 C 669.238281 211.285156 668.03125 209.871094 666.714844 208.550781 L 601.554688 143.28125 C 600.234375 141.964844 598.816406 140.765625 597.304688 139.675781 C 595.789062 138.589844 594.199219 137.628906 592.53125 136.796875 C 590.863281 135.964844 589.140625 135.269531 587.363281 134.714844 C 585.582031 134.160156 583.769531 133.75 581.925781 133.484375 C 580.082031 133.21875 578.226562 133.101562 576.363281 133.136719 C 574.5 133.167969 572.648438 133.351562 570.816406 133.679688 C 568.980469 134.011719 567.183594 134.484375 565.425781 135.101562 C 563.667969 135.71875 561.96875 136.476562 560.332031 137.367188 L 542.582031 146.988281 C 541.59375 147.507812 540.558594 147.902344 539.472656 148.171875 C 538.390625 148.445312 537.292969 148.582031 536.175781 148.585938 C 535.058594 148.59375 533.957031 148.464844 532.871094 148.207031 C 531.785156 147.945312 530.746094 147.558594 529.753906 147.050781 C 519.941406 142.148438 509.832031 137.960938 499.425781 134.488281 C 488.25 131.171875 488.445312 116.160156 484.484375 105.855469 C 483.964844 104.066406 483.308594 102.328125 482.507812 100.648438 C 481.707031 98.964844 480.777344 97.355469 479.714844 95.824219 C 478.652344 94.292969 477.476562 92.859375 476.183594 91.515625 C 474.886719 90.175781 473.496094 88.949219 472 87.835938 C 470.507812 86.722656 468.933594 85.734375 467.28125 84.875 C 465.628906 84.015625 463.914062 83.296875 462.144531 82.714844 C 460.375 82.136719 458.570312 81.699219 456.730469 81.414062 C 454.886719 81.125 453.035156 80.988281 451.171875 81 L 358.828125 81 C 356.964844 80.988281 355.109375 81.125 353.269531 81.414062 C 351.425781 81.703125 349.621094 82.136719 347.847656 82.71875 C 346.078125 83.300781 344.363281 84.023438 342.710938 84.882812 C 341.058594 85.742188 339.484375 86.730469 337.988281 87.84375 C 336.496094 88.960938 335.101562 90.1875 333.804688 91.53125 C 332.511719 92.871094 331.335938 94.308594 330.273438 95.839844 C 329.210938 97.375 328.28125 98.980469 327.480469 100.664062 C 326.679688 102.347656 326.019531 104.085938 325.503906 105.878906 L 319.808594 125.394531 C 319.460938 126.46875 318.992188 127.488281 318.398438 128.449219 C 317.804688 129.414062 317.105469 130.289062 316.296875 131.082031 C 315.492188 131.875 314.605469 132.5625 313.632812 133.140625 C 312.660156 133.71875 311.632812 134.171875 310.550781 134.5 C 300.171875 137.964844 290.085938 142.136719 280.289062 147.019531 C 279.292969 147.539062 278.246094 147.929688 277.152344 148.195312 C 276.058594 148.460938 274.953125 148.589844 273.828125 148.585938 C 272.703125 148.582031 271.59375 148.441406 270.503906 148.167969 C 269.410156 147.894531 268.367188 147.496094 267.375 146.96875 L 249.746094 137.40625 C 248.105469 136.511719 246.40625 135.753906 244.644531 135.132812 C 242.882812 134.511719 241.082031 134.035156 239.242188 133.703125 C 237.402344 133.371094 235.550781 133.1875 233.683594 133.152344 C 231.816406 133.117188 229.957031 133.230469 228.105469 133.492188 C 226.257812 133.757812 224.441406 134.167969 222.65625 134.722656 C 220.875 135.277344 219.144531 135.972656 217.472656 136.804688 C 215.800781 137.636719 214.203125 138.597656 212.6875 139.683594 C 211.167969 140.773438 209.746094 141.976562 208.421875 143.292969 L 143.285156 208.550781 C 141.972656 209.875 140.769531 211.292969 139.679688 212.808594 C 138.59375 214.324219 137.632812 215.917969 136.800781 217.585938 C 135.96875 219.257812 135.273438 220.984375 134.71875 222.765625 C 134.164062 224.546875 133.753906 226.359375 133.488281 228.207031 C 133.222656 230.054688 133.109375 231.910156 133.140625 233.773438 C 133.175781 235.640625 133.355469 237.492188 133.6875 239.328125 C 134.015625 241.164062 134.492188 242.960938 135.109375 244.722656 C 135.730469 246.480469 136.484375 248.179688 137.375 249.820312 L 146.980469 267.410156 C 147.503906 268.398438 147.902344 269.433594 148.171875 270.519531 C 148.445312 271.605469 148.582031 272.703125 148.585938 273.824219 C 148.59375 274.941406 148.464844 276.042969 148.203125 277.132812 C 147.941406 278.21875 147.550781 279.257812 147.039062 280.25 C 142.152344 290.0625 137.96875 300.167969 134.496094 310.5625 C 131.175781 321.773438 116.101562 321.574219 105.847656 325.507812 C 104.058594 326.027344 102.324219 326.6875 100.640625 327.488281 C 98.960938 328.289062 97.351562 329.222656 95.820312 330.28125 C 94.289062 331.34375 92.855469 332.523438 91.515625 333.816406 C 90.175781 335.113281 88.949219 336.503906 87.835938 338 C 86.71875 339.492188 85.734375 341.066406 84.875 342.71875 C 84.015625 344.375 83.296875 346.085938 82.714844 347.855469 C 82.136719 349.625 81.699219 351.429688 81.414062 353.273438 C 81.125 355.113281 80.988281 356.964844 81 358.828125 L 81 451.171875 C 80.988281 453.035156 81.125 454.890625 81.414062 456.730469 C 81.703125 458.574219 82.136719 460.378906 82.71875 462.152344 C 83.300781 463.921875 84.023438 465.636719 84.882812 467.289062 C 85.742188 468.945312 86.730469 470.519531 87.847656 472.011719 C 88.960938 473.507812 90.191406 474.902344 91.53125 476.195312 C 92.875 477.488281 94.3125 478.667969 95.84375 479.730469 C 97.378906 480.789062 98.984375 481.71875 100.671875 482.519531 C 102.355469 483.320312 104.09375 483.980469 105.882812 484.496094 L 125.332031 490.167969 C 126.390625 490.503906 127.398438 490.960938 128.351562 491.535156 C 129.300781 492.113281 130.171875 492.792969 130.960938 493.578125 C 131.75 494.363281 132.4375 495.226562 133.019531 496.175781 C 133.601562 497.125 134.0625 498.128906 134.40625 499.1875 C 138.136719 509.917969 142.492188 520.386719 147.480469 530.597656 C 147.910156 531.546875 148.230469 532.53125 148.429688 533.554688 C 148.628906 534.578125 148.707031 535.613281 148.664062 536.652344 C 148.621094 537.695312 148.457031 538.71875 148.171875 539.722656 C 147.890625 540.726562 147.492188 541.683594 146.980469 542.589844 L 137.363281 560.203125 C 136.46875 561.839844 135.710938 563.539062 135.089844 565.296875 C 134.46875 567.058594 133.992188 568.855469 133.660156 570.691406 C 133.328125 572.527344 133.144531 574.378906 133.113281 576.242188 C 133.078125 578.109375 133.195312 579.964844 133.460938 581.8125 C 133.726562 583.660156 134.136719 585.472656 134.691406 587.253906 C 135.25 589.035156 135.945312 590.757812 136.78125 592.425781 C 137.617188 594.09375 138.578125 595.6875 139.671875 597.199219 C 140.761719 598.714844 141.96875 600.128906 143.285156 601.449219 L 175.921875 634.078125 C 176.460938 634.613281 177.042969 635.09375 177.675781 635.511719 C 178.308594 635.933594 178.972656 636.289062 179.675781 636.578125 C 180.375 636.867188 181.097656 637.085938 181.84375 637.234375 C 182.589844 637.378906 183.339844 637.453125 184.097656 637.453125 C 184.855469 637.453125 185.609375 637.378906 186.351562 637.230469 C 187.097656 637.082031 187.820312 636.859375 188.519531 636.570312 C 189.222656 636.277344 189.886719 635.921875 190.519531 635.5 C 191.148438 635.078125 191.734375 634.601562 192.269531 634.0625 C 192.804688 633.527344 193.285156 632.945312 193.707031 632.3125 C 194.128906 631.683594 194.484375 631.015625 194.777344 630.316406 C 195.066406 629.613281 195.285156 628.890625 195.433594 628.148438 C 195.582031 627.402344 195.65625 626.652344 195.660156 625.894531 C 195.660156 625.132812 195.585938 624.382812 195.4375 623.636719 C 195.292969 622.894531 195.074219 622.171875 194.785156 621.46875 C 194.496094 620.765625 194.140625 620.101562 193.71875 619.46875 C 193.296875 618.835938 192.820312 618.253906 192.285156 617.714844 L 159.660156 585.09375 C 150.46875 576.03125 162.957031 563.648438 167.277344 553.714844 C 180.027344 532.371094 162.28125 511.96875 156.226562 491.480469 C 155.746094 490.09375 155.183594 488.738281 154.546875 487.414062 C 153.90625 486.09375 153.191406 484.8125 152.398438 483.574219 C 151.609375 482.335938 150.746094 481.152344 149.816406 480.015625 C 148.886719 478.878906 147.890625 477.800781 146.835938 476.78125 C 145.777344 475.761719 144.664062 474.808594 143.492188 473.921875 C 142.320312 473.035156 141.101562 472.21875 139.835938 471.476562 C 138.570312 470.730469 137.265625 470.0625 135.917969 469.472656 C 134.574219 468.882812 133.199219 468.375 131.792969 467.949219 L 112.378906 462.285156 C 111.785156 462.113281 111.207031 461.890625 110.648438 461.621094 C 110.089844 461.355469 109.554688 461.042969 109.046875 460.6875 C 108.539062 460.332031 108.0625 459.941406 107.617188 459.507812 C 107.171875 459.074219 106.765625 458.609375 106.394531 458.113281 C 106.027344 457.613281 105.699219 457.089844 105.414062 456.539062 C 105.132812 455.988281 104.894531 455.417969 104.703125 454.828125 C 104.511719 454.238281 104.367188 453.636719 104.273438 453.023438 C 104.179688 452.410156 104.136719 451.792969 104.144531 451.171875 L 104.144531 358.828125 C 104.136719 358.207031 104.179688 357.59375 104.273438 356.980469 C 104.367188 356.371094 104.507812 355.769531 104.699219 355.179688 C 104.890625 354.589844 105.125 354.023438 105.410156 353.472656 C 105.691406 352.921875 106.015625 352.398438 106.382812 351.898438 C 106.75 351.402344 107.15625 350.9375 107.601562 350.503906 C 108.042969 350.070312 108.519531 349.679688 109.023438 349.324219 C 109.53125 348.96875 110.0625 348.65625 110.621094 348.386719 C 111.179688 348.117188 111.753906 347.894531 112.347656 347.71875 L 131.75 342.070312 C 133.179688 341.640625 134.582031 341.128906 135.949219 340.53125 C 137.320312 339.933594 138.648438 339.253906 139.9375 338.496094 C 141.226562 337.738281 142.460938 336.90625 143.648438 336 C 144.835938 335.09375 145.964844 334.117188 147.035156 333.074219 C 148.105469 332.03125 149.109375 330.925781 150.042969 329.761719 C 150.980469 328.597656 151.84375 327.382812 152.632812 326.113281 C 153.421875 324.84375 154.132812 323.53125 154.765625 322.179688 C 155.394531 320.824219 155.941406 319.4375 156.40625 318.015625 C 162.714844 296.464844 179.769531 277.929688 167.300781 256.3125 L 157.671875 238.6875 C 157.375 238.140625 157.125 237.574219 156.917969 236.984375 C 156.710938 236.398438 156.554688 235.796875 156.441406 235.183594 C 156.332031 234.570312 156.273438 233.953125 156.261719 233.328125 C 156.253906 232.707031 156.292969 232.085938 156.378906 231.46875 C 156.46875 230.851562 156.605469 230.246094 156.792969 229.652344 C 156.980469 229.058594 157.210938 228.480469 157.492188 227.921875 C 157.769531 227.367188 158.089844 226.835938 158.453125 226.328125 C 158.820312 225.824219 159.222656 225.347656 159.660156 224.910156 L 224.796875 159.648438 C 225.238281 159.207031 225.714844 158.804688 226.222656 158.441406 C 226.734375 158.074219 227.269531 157.753906 227.828125 157.476562 C 228.390625 157.195312 228.96875 156.964844 229.566406 156.78125 C 230.164062 156.59375 230.773438 156.457031 231.394531 156.371094 C 232.011719 156.285156 232.636719 156.246094 233.261719 156.261719 C 233.886719 156.273438 234.507812 156.335938 235.125 156.449219 C 235.738281 156.5625 236.34375 156.726562 236.933594 156.9375 C 237.519531 157.148438 238.089844 157.402344 238.636719 157.707031 L 256.300781 167.292969 C 277.910156 179.796875 296.464844 162.757812 317.988281 156.410156 C 319.410156 155.949219 320.796875 155.40625 322.148438 154.777344 C 323.503906 154.148438 324.816406 153.441406 326.085938 152.652344 C 327.351562 151.867188 328.570312 151.003906 329.734375 150.070312 C 330.898438 149.136719 332.003906 148.136719 333.046875 147.066406 C 334.089844 146 335.066406 144.871094 335.972656 143.6875 C 336.882812 142.5 337.714844 141.265625 338.472656 139.980469 C 339.230469 138.691406 339.910156 137.367188 340.507812 135.996094 C 341.105469 134.628906 341.617188 133.230469 342.046875 131.800781 L 347.707031 112.386719 C 347.882812 111.789062 348.105469 111.214844 348.371094 110.652344 C 348.640625 110.09375 348.953125 109.5625 349.308594 109.050781 C 349.664062 108.542969 350.058594 108.066406 350.488281 107.621094 C 350.921875 107.175781 351.386719 106.769531 351.886719 106.398438 C 352.382812 106.03125 352.910156 105.703125 353.460938 105.417969 C 354.011719 105.132812 354.582031 104.898438 355.171875 104.703125 C 355.761719 104.511719 356.363281 104.371094 356.976562 104.277344 C 357.589844 104.179688 358.207031 104.136719 358.828125 104.144531 L 451.171875 104.144531 C 451.792969 104.136719 452.40625 104.179688 453.019531 104.273438 C 453.632812 104.367188 454.234375 104.511719 454.824219 104.699219 C 455.410156 104.890625 455.980469 105.128906 456.53125 105.414062 C 457.082031 105.695312 457.605469 106.023438 458.105469 106.390625 C 458.601562 106.757812 459.066406 107.164062 459.5 107.609375 C 459.933594 108.054688 460.324219 108.527344 460.679688 109.035156 C 461.035156 109.542969 461.347656 110.078125 461.617188 110.636719 C 461.882812 111.195312 462.105469 111.769531 462.28125 112.363281 L 467.929688 131.722656 C 473.078125 155.015625 502.335938 158.34375 519.359375 167.722656 C 520.6875 168.394531 522.046875 168.988281 523.445312 169.496094 C 524.84375 170.007812 526.265625 170.429688 527.714844 170.765625 C 529.164062 171.105469 530.628906 171.355469 532.109375 171.515625 C 533.585938 171.675781 535.070312 171.746094 536.558594 171.730469 C 538.046875 171.710938 539.527344 171.605469 541 171.40625 C 542.476562 171.210938 543.933594 170.925781 545.375 170.554688 C 546.8125 170.183594 548.226562 169.726562 549.613281 169.183594 C 550.996094 168.640625 552.34375 168.015625 553.65625 167.3125 L 571.476562 157.648438 C 572.769531 156.925781 574.15625 156.484375 575.628906 156.320312 C 577.105469 156.160156 578.550781 156.292969 579.972656 156.714844 C 581.992188 157.1875 583.730469 158.160156 585.191406 159.632812 L 650.339844 224.910156 C 659.53125 233.964844 647.039062 246.355469 642.722656 256.285156 C 629.96875 277.632812 647.71875 298.03125 653.773438 318.519531 C 654.253906 319.90625 654.8125 321.261719 655.453125 322.585938 C 656.09375 323.90625 656.808594 325.1875 657.601562 326.425781 C 658.390625 327.664062 659.25 328.847656 660.183594 329.984375 C 661.113281 331.121094 662.105469 332.199219 663.164062 333.21875 C 664.222656 334.238281 665.335938 335.191406 666.507812 336.078125 C 667.675781 336.964844 668.894531 337.78125 670.164062 338.527344 C 671.429688 339.269531 672.734375 339.9375 674.078125 340.527344 C 675.425781 341.117188 676.800781 341.625 678.207031 342.050781 L 697.621094 347.714844 C 698.214844 347.886719 698.792969 348.109375 699.351562 348.378906 C 699.910156 348.644531 700.445312 348.957031 700.953125 349.3125 C 701.460938 349.667969 701.9375 350.058594 702.382812 350.492188 C 702.828125 350.925781 703.234375 351.390625 703.605469 351.886719 C 703.972656 352.386719 704.300781 352.910156 704.582031 353.460938 C 704.867188 354.011719 705.105469 354.582031 705.296875 355.171875 C 705.488281 355.761719 705.632812 356.363281 705.726562 356.976562 C 705.820312 357.589844 705.863281 358.207031 705.855469 358.828125 L 705.855469 451.171875 C 705.863281 451.792969 705.820312 452.40625 705.726562 453.019531 C 705.632812 453.628906 705.492188 454.230469 705.300781 454.820312 C 705.109375 455.410156 704.875 455.976562 704.589844 456.527344 C 704.308594 457.078125 703.984375 457.601562 703.617188 458.101562 C 703.25 458.597656 702.84375 459.0625 702.398438 459.496094 C 701.957031 459.929688 701.480469 460.320312 700.976562 460.675781 C 700.46875 461.03125 699.9375 461.34375 699.378906 461.613281 C 698.820312 461.882812 698.246094 462.105469 697.652344 462.28125 L 678.25 467.929688 C 654.984375 473.09375 651.632812 502.371094 642.28125 519.359375 C 632.132812 537.875 643.128906 555.441406 652.328125 571.3125 C 652.625 571.859375 652.878906 572.425781 653.082031 573.011719 C 653.289062 573.601562 653.449219 574.203125 653.558594 574.816406 C 653.667969 575.425781 653.726562 576.046875 653.738281 576.667969 C 653.75 577.289062 653.710938 577.910156 653.621094 578.527344 C 653.535156 579.144531 653.394531 579.75 653.210938 580.34375 C 653.023438 580.9375 652.792969 581.511719 652.515625 582.070312 C 652.238281 582.628906 651.917969 583.160156 651.554688 583.664062 C 651.191406 584.171875 650.789062 584.644531 650.351562 585.085938 L 585.082031 650.351562 C 576.070312 659.570312 563.441406 646.925781 553.710938 642.71875 C 532.355469 629.984375 512.019531 647.703125 491.457031 653.769531 C 490.070312 654.25 488.71875 654.8125 487.394531 655.453125 C 486.074219 656.089844 484.796875 656.808594 483.558594 657.597656 C 482.324219 658.390625 481.136719 659.25 480.003906 660.183594 C 478.867188 661.113281 477.792969 662.105469 476.773438 663.164062 C 475.757812 664.222656 474.804688 665.335938 473.917969 666.507812 C 473.03125 667.675781 472.21875 668.894531 471.476562 670.160156 C 470.730469 671.425781 470.066406 672.730469 469.476562 674.078125 C 468.886719 675.421875 468.378906 676.796875 467.953125 678.199219 L 462.292969 697.613281 C 462.117188 698.207031 461.894531 698.785156 461.625 699.34375 C 461.359375 699.90625 461.046875 700.4375 460.691406 700.949219 C 460.335938 701.457031 459.941406 701.933594 459.511719 702.378906 C 459.078125 702.824219 458.613281 703.230469 458.113281 703.601562 C 457.617188 703.96875 457.089844 704.296875 456.539062 704.582031 C 455.988281 704.867188 455.417969 705.101562 454.828125 705.296875 C 454.238281 705.488281 453.636719 705.628906 453.023438 705.722656 C 452.410156 705.820312 451.792969 705.863281 451.171875 705.855469 L 358.828125 705.855469 C 358.207031 705.863281 357.59375 705.820312 356.980469 705.726562 C 356.367188 705.632812 355.765625 705.488281 355.175781 705.300781 C 354.589844 705.109375 354.019531 704.871094 353.46875 704.585938 C 352.917969 704.304688 352.390625 703.976562 351.894531 703.609375 C 351.398438 703.242188 350.933594 702.835938 350.5 702.390625 C 350.066406 701.945312 349.675781 701.472656 349.320312 700.964844 C 348.964844 700.457031 348.652344 699.921875 348.382812 699.363281 C 348.117188 698.804688 347.894531 698.230469 347.71875 697.636719 L 342.070312 678.277344 C 336.921875 654.988281 307.664062 651.652344 290.640625 642.277344 C 272.113281 632.144531 254.605469 643.113281 238.75 652.300781 C 237.484375 653.019531 236.128906 653.472656 234.6875 653.660156 C 233.242188 653.84375 231.816406 653.753906 230.410156 653.378906 C 229.679688 653.179688 228.933594 653.054688 228.171875 653 C 227.414062 652.949219 226.660156 652.96875 225.90625 653.066406 C 225.152344 653.164062 224.414062 653.332031 223.695312 653.574219 C 222.972656 653.816406 222.28125 654.128906 221.625 654.507812 C 220.964844 654.886719 220.347656 655.324219 219.777344 655.824219 C 219.203125 656.324219 218.683594 656.875 218.222656 657.476562 C 217.757812 658.082031 217.355469 658.722656 217.019531 659.402344 C 216.683594 660.085938 216.414062 660.792969 216.21875 661.527344 C 212.945312 679.875 238.804688 679.382812 249.824219 672.617188 L 267.417969 663.011719 C 268.40625 662.492188 269.441406 662.097656 270.527344 661.828125 C 271.609375 661.554688 272.707031 661.417969 273.824219 661.414062 C 274.941406 661.40625 276.042969 661.535156 277.128906 661.792969 C 278.214844 662.054688 279.253906 662.441406 280.246094 662.949219 C 290.058594 667.851562 300.167969 672.039062 310.574219 675.511719 C 311.660156 675.84375 312.691406 676.300781 313.664062 676.882812 C 314.636719 677.46875 315.527344 678.160156 316.332031 678.957031 C 317.140625 679.757812 317.839844 680.640625 318.429688 681.609375 C 319.019531 682.578125 319.488281 683.605469 319.828125 684.6875 L 325.515625 704.144531 C 326.03125 705.9375 326.691406 707.671875 327.492188 709.355469 C 328.292969 711.035156 329.222656 712.644531 330.285156 714.175781 C 331.34375 715.707031 332.523438 717.144531 333.816406 718.484375 C 335.113281 719.824219 336.503906 721.050781 338 722.164062 C 339.492188 723.277344 341.066406 724.265625 342.71875 725.125 C 344.371094 725.984375 346.085938 726.703125 347.855469 727.285156 C 349.625 727.863281 351.429688 728.300781 353.269531 728.585938 C 355.113281 728.875 356.964844 729.011719 358.828125 729 L 451.171875 729 C 453.035156 729.011719 454.890625 728.875 456.730469 728.585938 C 458.574219 728.296875 460.378906 727.863281 462.152344 727.28125 C 463.921875 726.699219 465.636719 725.976562 467.289062 725.117188 C 468.941406 724.257812 470.515625 723.269531 472.011719 722.15625 C 473.503906 721.039062 474.898438 719.8125 476.195312 718.46875 C 477.488281 717.128906 478.667969 715.691406 479.726562 714.160156 C 480.789062 712.625 481.71875 711.019531 482.519531 709.335938 C 483.320312 707.652344 483.980469 705.914062 484.496094 704.121094 L 490.179688 684.652344 C 490.515625 683.59375 490.972656 682.589844 491.546875 681.640625 C 492.121094 680.691406 492.800781 679.820312 493.582031 679.035156 C 494.363281 678.246094 495.230469 677.558594 496.175781 676.976562 C 497.121094 676.394531 498.121094 675.933594 499.175781 675.589844 C 509.910156 671.871094 520.382812 667.515625 530.589844 662.53125 C 539.105469 657.695312 552.777344 669.457031 560.140625 672.59375 C 561.78125 673.488281 563.480469 674.246094 565.242188 674.871094 C 567 675.492188 568.800781 675.96875 570.636719 676.300781 C 572.476562 676.632812 574.328125 676.816406 576.195312 676.851562 C 578.0625 676.886719 579.917969 676.773438 581.769531 676.511719 C 583.617188 676.246094 585.433594 675.839844 587.214844 675.285156 C 589 674.730469 590.726562 674.035156 592.398438 673.203125 C 594.070312 672.371094 595.664062 671.410156 597.179688 670.320312 C 598.699219 669.234375 600.117188 668.03125 601.441406 666.714844 L 666.714844 601.449219 C 668.027344 600.125 669.230469 598.707031 670.320312 597.191406 C 671.40625 595.675781 672.367188 594.082031 673.199219 592.414062 C 674.03125 590.742188 674.726562 589.019531 675.28125 587.238281 C 675.835938 585.457031 676.246094 583.640625 676.511719 581.792969 C 676.777344 579.949219 676.890625 578.089844 676.859375 576.226562 C 676.824219 574.359375 676.644531 572.507812 676.3125 570.671875 C 675.984375 568.835938 675.507812 567.039062 674.890625 565.277344 C 674.269531 563.519531 673.515625 561.820312 672.625 560.179688 L 663.019531 542.589844 C 662.496094 541.601562 662.097656 540.566406 661.828125 539.480469 C 661.554688 538.398438 661.417969 537.296875 661.414062 536.175781 C 661.40625 535.058594 661.535156 533.957031 661.796875 532.871094 C 662.058594 531.78125 662.449219 530.742188 662.960938 529.75 C 667.847656 519.9375 672.03125 509.832031 675.503906 499.4375 C 675.835938 498.351562 676.296875 497.320312 676.878906 496.347656 C 677.460938 495.371094 678.148438 494.480469 678.949219 493.675781 C 679.746094 492.867188 680.628906 492.167969 681.597656 491.574219 C 682.5625 490.980469 683.589844 490.507812 684.667969 490.164062 L 704.152344 484.492188 C 705.941406 483.972656 707.675781 483.3125 709.359375 482.511719 C 711.039062 481.710938 712.648438 480.777344 714.179688 479.71875 C 715.710938 478.65625 717.144531 477.476562 718.484375 476.183594 C 719.824219 474.890625 721.050781 473.496094 722.164062 472 C 723.28125 470.507812 724.265625 468.933594 725.125 467.28125 C 725.984375 465.628906 726.703125 463.914062 727.285156 462.144531 C 727.863281 460.375 728.300781 458.570312 728.585938 456.726562 C 728.875 454.886719 729.011719 453.035156 729 451.171875 L 729 358.828125 C 729.011719 356.964844 728.875 355.109375 728.585938 353.269531 C 728.296875 351.425781 727.863281 349.621094 727.28125 347.847656 C 726.699219 346.078125 725.976562 344.363281 725.117188 342.710938 C 724.257812 341.054688 723.269531 339.480469 722.152344 337.988281 C 721.039062 336.492188 719.808594 335.097656 718.46875 333.804688 C 717.125 332.511719 715.6875 331.332031 714.15625 330.269531 C 712.621094 329.210938 711.015625 328.28125 709.328125 327.480469 C 707.644531 326.679688 705.90625 326.019531 704.117188 325.503906 Z M 704.117188 325.503906 " fill-opacity="1" fill-rule="nonzero"/><path fill="#5ac3b2" d="M 552.265625 257.730469 C 423.613281 126.929688 195.535156 221.339844 196.714844 405.003906 C 194.378906 516.875 293.125 615.625 405 613.285156 C 558.957031 615.96875 663.507812 442.105469 589.132812 307.574219 C 588.769531 306.917969 588.34375 306.300781 587.859375 305.726562 C 587.375 305.152344 586.839844 304.632812 586.253906 304.160156 C 585.671875 303.691406 585.042969 303.285156 584.378906 302.933594 C 583.714844 302.585938 583.019531 302.308594 582.300781 302.09375 C 581.582031 301.878906 580.847656 301.738281 580.097656 301.667969 C 579.351562 301.597656 578.605469 301.601562 577.855469 301.675781 C 577.109375 301.75 576.375 301.898438 575.65625 302.117188 C 574.9375 302.335938 574.25 302.621094 573.585938 302.972656 C 572.921875 303.324219 572.300781 303.738281 571.71875 304.210938 C 571.132812 304.6875 570.601562 305.210938 570.121094 305.789062 C 569.640625 306.367188 569.222656 306.984375 568.863281 307.644531 C 568.503906 308.300781 568.210938 308.992188 567.984375 309.707031 C 567.757812 310.421875 567.601562 311.152344 567.519531 311.898438 C 567.4375 312.644531 567.425781 313.394531 567.488281 314.140625 C 567.550781 314.890625 567.683594 315.625 567.886719 316.347656 C 568.09375 317.070312 568.367188 317.765625 568.707031 318.4375 C 634.742188 438.003906 541.855469 592.542969 404.996094 590.140625 C 401.972656 590.125 398.949219 590.039062 395.925781 589.875 C 392.90625 589.710938 389.890625 589.476562 386.878906 589.167969 C 383.867188 588.855469 380.867188 588.472656 377.878906 588.019531 C 374.886719 587.5625 371.90625 587.03125 368.941406 586.429688 C 365.976562 585.832031 363.027344 585.15625 360.09375 584.410156 C 357.164062 583.667969 354.25 582.851562 351.355469 581.960938 C 348.464844 581.074219 345.59375 580.117188 342.75 579.089844 C 339.902344 578.0625 337.082031 576.96875 334.289062 575.800781 C 331.496094 574.636719 328.734375 573.40625 326.003906 572.105469 C 323.269531 570.804688 320.570312 569.441406 317.90625 568.007812 C 315.238281 566.578125 312.609375 565.082031 310.015625 563.523438 C 307.421875 561.960938 304.871094 560.339844 302.355469 558.65625 C 299.84375 556.972656 297.371094 555.226562 294.941406 553.421875 C 292.515625 551.617188 290.128906 549.753906 287.792969 547.832031 C 285.457031 545.914062 283.164062 543.9375 280.925781 541.902344 C 278.683594 539.871094 276.492188 537.785156 274.351562 535.644531 C 272.214844 533.503906 270.128906 531.3125 268.09375 529.074219 C 266.0625 526.832031 264.085938 524.542969 262.164062 522.203125 C 260.242188 519.867188 258.378906 517.484375 256.574219 515.054688 C 254.769531 512.625 253.027344 510.152344 251.339844 507.640625 C 249.65625 505.125 248.035156 502.574219 246.476562 499.980469 C 244.917969 497.386719 243.421875 494.757812 241.988281 492.089844 C 240.558594 489.425781 239.191406 486.726562 237.894531 483.992188 C 236.59375 481.261719 235.363281 478.5 234.195312 475.707031 C 233.03125 472.914062 231.9375 470.09375 230.910156 467.246094 C 229.882812 464.402344 228.921875 461.53125 228.035156 458.640625 C 227.148438 455.746094 226.332031 452.832031 225.585938 449.902344 C 224.84375 446.96875 224.167969 444.019531 223.566406 441.054688 C 222.964844 438.089844 222.4375 435.109375 221.980469 432.117188 C 221.527344 429.128906 221.144531 426.125 220.832031 423.117188 C 220.523438 420.105469 220.289062 417.089844 220.125 414.070312 C 219.960938 411.046875 219.875 408.023438 219.859375 405 C 218.824219 241.75 421.558594 157.8125 535.902344 274.097656 C 536.445312 274.613281 537.03125 275.074219 537.660156 275.480469 C 538.292969 275.882812 538.957031 276.226562 539.652344 276.5 C 540.351562 276.777344 541.066406 276.980469 541.804688 277.117188 C 542.539062 277.253906 543.285156 277.320312 544.035156 277.308594 C 544.78125 277.300781 545.523438 277.222656 546.257812 277.070312 C 546.992188 276.917969 547.703125 276.695312 548.394531 276.40625 C 549.085938 276.113281 549.742188 275.761719 550.363281 275.34375 C 550.988281 274.925781 551.5625 274.449219 552.09375 273.921875 C 552.621094 273.390625 553.097656 272.8125 553.515625 272.191406 C 553.933594 271.570312 554.285156 270.914062 554.578125 270.222656 C 554.867188 269.53125 555.089844 268.820312 555.242188 268.085938 C 555.394531 267.351562 555.472656 266.609375 555.480469 265.859375 C 555.488281 265.109375 555.425781 264.367188 555.289062 263.628906 C 555.152344 262.894531 554.945312 262.175781 554.667969 261.480469 C 554.394531 260.78125 554.054688 260.121094 553.648438 259.488281 C 553.246094 258.859375 552.78125 258.273438 552.265625 257.730469 Z M 552.265625 257.730469 " fill-opacity="1" fill-rule="nonzero"/><path fill="#5ac3b2" d="M 528.433594 347.144531 L 482.148438 347.144531 C 481.386719 347.144531 480.632812 347.214844 479.890625 347.363281 C 479.144531 347.511719 478.421875 347.730469 477.71875 348.023438 C 477.015625 348.3125 476.347656 348.671875 475.71875 349.09375 C 475.085938 349.515625 474.5 349.992188 473.964844 350.53125 C 473.425781 351.070312 472.945312 351.652344 472.523438 352.285156 C 472.101562 352.917969 471.746094 353.582031 471.457031 354.285156 C 471.164062 354.988281 470.945312 355.710938 470.796875 356.457031 C 470.648438 357.203125 470.574219 357.953125 470.574219 358.714844 L 470.574219 451.285156 C 470.589844 452.035156 470.675781 452.777344 470.835938 453.511719 C 470.996094 454.246094 471.222656 454.957031 471.519531 455.644531 C 471.816406 456.335938 472.179688 456.988281 472.601562 457.605469 C 473.027344 458.226562 473.507812 458.796875 474.042969 459.324219 C 474.578125 459.847656 475.160156 460.316406 475.789062 460.730469 C 476.414062 461.144531 477.074219 461.492188 477.769531 461.773438 C 478.464844 462.058594 479.179688 462.273438 479.917969 462.417969 C 480.652344 462.5625 481.398438 462.632812 482.148438 462.632812 C 482.898438 462.632812 483.640625 462.5625 484.378906 462.417969 C 485.113281 462.273438 485.828125 462.058594 486.523438 461.773438 C 487.21875 461.492188 487.878906 461.140625 488.507812 460.730469 C 489.132812 460.316406 489.714844 459.847656 490.25 459.324219 C 490.785156 458.796875 491.265625 458.226562 491.691406 457.605469 C 492.117188 456.988281 492.476562 456.332031 492.773438 455.644531 C 493.070312 454.957031 493.300781 454.246094 493.457031 453.511719 C 493.617188 452.777344 493.703125 452.035156 493.71875 451.285156 L 493.71875 416.570312 L 528.433594 416.570312 C 529.316406 416.570312 530.199219 416.527344 531.078125 416.4375 C 531.957031 416.351562 532.832031 416.21875 533.699219 416.046875 C 534.5625 415.875 535.421875 415.65625 536.265625 415.402344 C 537.113281 415.144531 537.941406 414.84375 538.757812 414.507812 C 539.574219 414.167969 540.375 413.789062 541.152344 413.371094 C 541.933594 412.957031 542.6875 412.5 543.425781 412.007812 C 544.160156 411.519531 544.867188 410.992188 545.550781 410.429688 C 546.234375 409.871094 546.886719 409.277344 547.511719 408.652344 C 548.136719 408.027344 548.730469 407.371094 549.292969 406.6875 C 549.851562 406.007812 550.378906 405.296875 550.871094 404.5625 C 551.359375 403.828125 551.816406 403.070312 552.230469 402.289062 C 552.648438 401.511719 553.027344 400.714844 553.367188 399.898438 C 553.703125 399.082031 554.003906 398.25 554.257812 397.402344 C 554.515625 396.558594 554.730469 395.703125 554.90625 394.835938 C 555.078125 393.96875 555.207031 393.09375 555.296875 392.214844 C 555.382812 391.335938 555.425781 390.453125 555.429688 389.570312 L 555.429688 374.144531 C 555.425781 373.261719 555.382812 372.378906 555.296875 371.5 C 555.207031 370.621094 555.078125 369.746094 554.90625 368.878906 C 554.730469 368.011719 554.515625 367.15625 554.257812 366.3125 C 554.003906 365.464844 553.703125 364.632812 553.367188 363.816406 C 553.027344 363 552.648438 362.203125 552.230469 361.421875 C 551.816406 360.644531 551.359375 359.886719 550.871094 359.152344 C 550.378906 358.417969 549.851562 357.707031 549.292969 357.023438 C 548.730469 356.34375 548.136719 355.6875 547.511719 355.0625 C 546.886719 354.4375 546.234375 353.84375 545.550781 353.285156 C 544.867188 352.722656 544.160156 352.195312 543.425781 351.703125 C 542.6875 351.214844 541.933594 350.757812 541.152344 350.34375 C 540.375 349.925781 539.574219 349.546875 538.757812 349.207031 C 537.941406 348.871094 537.113281 348.570312 536.265625 348.3125 C 535.421875 348.054688 534.5625 347.839844 533.699219 347.667969 C 532.832031 347.496094 531.957031 347.363281 531.078125 347.277344 C 530.199219 347.1875 529.316406 347.144531 528.433594 347.144531 Z M 532.285156 389.570312 C 532.285156 390.082031 532.1875 390.574219 531.992188 391.046875 C 531.796875 391.515625 531.519531 391.933594 531.15625 392.296875 C 530.796875 392.65625 530.378906 392.9375 529.90625 393.132812 C 529.433594 393.328125 528.945312 393.429688 528.433594 393.429688 L 493.71875 393.429688 L 493.71875 370.285156 L 528.433594 370.285156 C 528.945312 370.285156 529.433594 370.386719 529.90625 370.582031 C 530.378906 370.777344 530.796875 371.054688 531.15625 371.417969 C 531.519531 371.78125 531.796875 372.195312 531.992188 372.667969 C 532.1875 373.140625 532.285156 373.632812 532.285156 374.144531 Z M 532.285156 389.570312 " fill-opacity="1" fill-rule="nonzero"/><path fill="#5ac3b2" d="M 389.53125 347.144531 C 388.648438 347.144531 387.765625 347.1875 386.886719 347.273438 C 386.007812 347.363281 385.136719 347.492188 384.273438 347.664062 C 383.40625 347.839844 382.550781 348.054688 381.707031 348.308594 C 380.863281 348.566406 380.03125 348.863281 379.214844 349.203125 C 378.402344 349.542969 377.605469 349.917969 376.824219 350.335938 C 376.046875 350.75 375.292969 351.203125 374.558594 351.695312 C 373.824219 352.1875 373.117188 352.710938 372.433594 353.273438 C 371.75 353.832031 371.097656 354.425781 370.472656 355.046875 C 369.847656 355.671875 369.257812 356.324219 368.695312 357.007812 C 368.136719 357.691406 367.609375 358.398438 367.121094 359.132812 C 366.628906 359.867188 366.175781 360.621094 365.757812 361.402344 C 365.34375 362.179688 364.964844 362.976562 364.628906 363.792969 C 364.289062 364.605469 363.992188 365.4375 363.734375 366.28125 C 363.476562 367.125 363.261719 367.980469 363.089844 368.847656 C 362.917969 369.710938 362.789062 370.585938 362.699219 371.464844 C 362.613281 372.34375 362.570312 373.222656 362.566406 374.105469 L 362.566406 435.894531 C 362.570312 436.777344 362.613281 437.660156 362.699219 438.535156 C 362.789062 439.414062 362.917969 440.289062 363.089844 441.152344 C 363.261719 442.019531 363.476562 442.875 363.734375 443.71875 C 363.992188 444.5625 364.289062 445.394531 364.628906 446.207031 C 364.964844 447.023438 365.34375 447.820312 365.761719 448.597656 C 366.175781 449.378906 366.628906 450.132812 367.121094 450.867188 C 367.609375 451.601562 368.136719 452.308594 368.695312 452.992188 C 369.257812 453.675781 369.847656 454.328125 370.472656 454.953125 C 371.097656 455.574219 371.75 456.167969 372.433594 456.726562 C 373.117188 457.289062 373.824219 457.8125 374.558594 458.304688 C 375.292969 458.796875 376.046875 459.25 376.824219 459.664062 C 377.605469 460.082031 378.402344 460.457031 379.214844 460.796875 C 380.03125 461.136719 380.863281 461.433594 381.707031 461.691406 C 382.550781 461.945312 383.40625 462.160156 384.273438 462.335938 C 385.136719 462.507812 386.007812 462.636719 386.886719 462.726562 C 387.765625 462.8125 388.648438 462.855469 389.53125 462.855469 L 420.46875 462.855469 C 421.351562 462.855469 422.234375 462.8125 423.113281 462.726562 C 423.992188 462.636719 424.863281 462.507812 425.726562 462.335938 C 426.59375 462.160156 427.449219 461.945312 428.292969 461.691406 C 429.136719 461.433594 429.96875 461.136719 430.785156 460.796875 C 431.597656 460.457031 432.394531 460.082031 433.175781 459.664062 C 433.953125 459.25 434.707031 458.796875 435.441406 458.304688 C 436.175781 457.8125 436.882812 457.289062 437.566406 456.726562 C 438.25 456.167969 438.902344 455.574219 439.527344 454.953125 C 440.152344 454.328125 440.742188 453.675781 441.304688 452.992188 C 441.863281 452.308594 442.390625 451.601562 442.878906 450.867188 C 443.371094 450.132812 443.824219 449.378906 444.238281 448.597656 C 444.65625 447.820312 445.035156 447.023438 445.371094 446.207031 C 445.710938 445.394531 446.007812 444.5625 446.265625 443.71875 C 446.523438 442.875 446.738281 442.019531 446.910156 441.152344 C 447.082031 440.289062 447.210938 439.414062 447.300781 438.535156 C 447.386719 437.660156 447.429688 436.777344 447.433594 435.894531 L 447.433594 374.105469 C 447.429688 373.222656 447.386719 372.34375 447.300781 371.464844 C 447.210938 370.585938 447.082031 369.710938 446.910156 368.847656 C 446.738281 367.980469 446.523438 367.125 446.265625 366.28125 C 446.007812 365.4375 445.710938 364.605469 445.371094 363.792969 C 445.035156 362.976562 444.65625 362.179688 444.238281 361.402344 C 443.824219 360.621094 443.371094 359.867188 442.878906 359.132812 C 442.390625 358.398438 441.863281 357.691406 441.304688 357.007812 C 440.742188 356.324219 440.152344 355.671875 439.527344 355.046875 C 438.902344 354.425781 438.25 353.832031 437.566406 353.273438 C 436.882812 352.710938 436.175781 352.1875 435.441406 351.695312 C 434.707031 351.203125 433.953125 350.75 433.175781 350.335938 C 432.394531 349.917969 431.597656 349.542969 430.785156 349.203125 C 429.96875 348.863281 429.136719 348.566406 428.292969 348.308594 C 427.449219 348.054688 426.59375 347.839844 425.726562 347.664062 C 424.863281 347.492188 423.992188 347.363281 423.113281 347.273438 C 422.234375 347.1875 421.351562 347.144531 420.46875 347.144531 Z M 424.289062 374.105469 L 424.289062 435.894531 C 424.289062 436.402344 424.191406 436.886719 423.996094 437.355469 C 423.804688 437.824219 423.527344 438.234375 423.167969 438.59375 C 422.8125 438.953125 422.398438 439.226562 421.929688 439.421875 C 421.464844 439.617188 420.976562 439.714844 420.46875 439.714844 L 389.53125 439.714844 C 389.023438 439.714844 388.535156 439.617188 388.070312 439.421875 C 387.601562 439.226562 387.1875 438.953125 386.832031 438.59375 C 386.472656 438.234375 386.195312 437.824219 386.003906 437.355469 C 385.808594 436.886719 385.710938 436.402344 385.710938 435.894531 L 385.710938 374.105469 C 385.710938 373.597656 385.808594 373.113281 386.003906 372.644531 C 386.195312 372.175781 386.472656 371.765625 386.832031 371.40625 C 387.1875 371.046875 387.601562 370.773438 388.070312 370.578125 C 388.535156 370.382812 389.023438 370.285156 389.53125 370.285156 L 420.46875 370.285156 C 420.976562 370.285156 421.464844 370.382812 421.929688 370.578125 C 422.398438 370.773438 422.8125 371.046875 423.167969 371.40625 C 423.527344 371.765625 423.804688 372.175781 423.996094 372.644531 C 424.191406 373.113281 424.289062 373.597656 424.289062 374.105469 Z M 424.289062 374.105469 " fill-opacity="1" fill-rule="nonzero"/><path fill="#5ac3b2" d="M 281.566406 370.285156 L 327.851562 370.285156 C 328.613281 370.285156 329.367188 370.210938 330.109375 370.0625 C 330.855469 369.914062 331.578125 369.695312 332.28125 369.40625 C 332.984375 369.113281 333.648438 368.757812 334.28125 368.335938 C 334.914062 367.914062 335.5 367.433594 336.035156 366.898438 C 336.574219 366.359375 337.050781 365.773438 337.472656 365.144531 C 337.898438 364.511719 338.253906 363.84375 338.542969 363.140625 C 338.835938 362.441406 339.054688 361.71875 339.203125 360.972656 C 339.351562 360.226562 339.425781 359.472656 339.425781 358.714844 C 339.425781 357.953125 339.351562 357.203125 339.203125 356.457031 C 339.054688 355.710938 338.835938 354.988281 338.542969 354.285156 C 338.253906 353.585938 337.898438 352.917969 337.472656 352.285156 C 337.050781 351.652344 336.574219 351.070312 336.035156 350.53125 C 335.5 349.996094 334.914062 349.515625 334.28125 349.09375 C 333.648438 348.671875 332.984375 348.3125 332.28125 348.023438 C 331.578125 347.734375 330.855469 347.511719 330.109375 347.363281 C 329.367188 347.21875 328.613281 347.144531 327.851562 347.144531 L 281.566406 347.144531 C 280.683594 347.144531 279.800781 347.1875 278.921875 347.277344 C 278.042969 347.363281 277.167969 347.496094 276.300781 347.667969 C 275.4375 347.839844 274.578125 348.054688 273.734375 348.3125 C 272.886719 348.570312 272.058594 348.871094 271.242188 349.207031 C 270.425781 349.546875 269.625 349.925781 268.847656 350.34375 C 268.066406 350.757812 267.3125 351.214844 266.574219 351.703125 C 265.839844 352.195312 265.132812 352.722656 264.449219 353.285156 C 263.765625 353.84375 263.113281 354.4375 262.488281 355.0625 C 261.863281 355.6875 261.269531 356.34375 260.707031 357.023438 C 260.148438 357.707031 259.621094 358.417969 259.128906 359.152344 C 258.640625 359.886719 258.183594 360.644531 257.769531 361.421875 C 257.351562 362.203125 256.972656 363 256.632812 363.816406 C 256.296875 364.632812 255.996094 365.464844 255.742188 366.3125 C 255.484375 367.15625 255.269531 368.011719 255.09375 368.878906 C 254.921875 369.746094 254.792969 370.621094 254.703125 371.5 C 254.617188 372.378906 254.574219 373.261719 254.570312 374.144531 L 254.570312 389.570312 C 254.574219 390.453125 254.617188 391.335938 254.703125 392.214844 C 254.792969 393.09375 254.921875 393.96875 255.09375 394.835938 C 255.269531 395.703125 255.484375 396.558594 255.742188 397.402344 C 255.996094 398.25 256.296875 399.082031 256.632812 399.898438 C 256.972656 400.714844 257.351562 401.511719 257.769531 402.289062 C 258.183594 403.070312 258.640625 403.828125 259.128906 404.5625 C 259.621094 405.296875 260.148438 406.007812 260.707031 406.6875 C 261.269531 407.371094 261.863281 408.027344 262.488281 408.652344 C 263.113281 409.277344 263.765625 409.871094 264.449219 410.429688 C 265.132812 410.992188 265.839844 411.519531 266.574219 412.007812 C 267.3125 412.5 268.066406 412.957031 268.847656 413.371094 C 269.625 413.789062 270.425781 414.167969 271.242188 414.507812 C 272.058594 414.84375 272.886719 415.144531 273.734375 415.402344 C 274.578125 415.65625 275.4375 415.875 276.300781 416.046875 C 277.167969 416.21875 278.042969 416.351562 278.921875 416.4375 C 279.800781 416.527344 280.683594 416.570312 281.566406 416.570312 L 312.429688 416.570312 C 312.941406 416.570312 313.429688 416.671875 313.902344 416.867188 C 314.375 417.0625 314.792969 417.34375 315.152344 417.703125 C 315.515625 418.066406 315.792969 418.484375 315.988281 418.957031 C 316.183594 419.425781 316.28125 419.917969 316.28125 420.429688 L 316.28125 435.855469 C 316.28125 436.367188 316.183594 436.859375 315.988281 437.332031 C 315.792969 437.804688 315.515625 438.21875 315.152344 438.582031 C 314.792969 438.945312 314.375 439.222656 313.902344 439.417969 C 313.429688 439.613281 312.941406 439.714844 312.429688 439.714844 L 266.144531 439.714844 C 265.390625 439.730469 264.652344 439.816406 263.917969 439.976562 C 263.183594 440.132812 262.472656 440.363281 261.785156 440.660156 C 261.09375 440.957031 260.441406 441.316406 259.820312 441.742188 C 259.203125 442.167969 258.628906 442.644531 258.105469 443.183594 C 257.578125 443.71875 257.109375 444.300781 256.699219 444.925781 C 256.285156 445.554688 255.9375 446.214844 255.652344 446.910156 C 255.371094 447.605469 255.15625 448.320312 255.011719 449.054688 C 254.867188 449.792969 254.792969 450.535156 254.792969 451.285156 C 254.792969 452.035156 254.867188 452.78125 255.011719 453.515625 C 255.15625 454.253906 255.371094 454.96875 255.652344 455.664062 C 255.9375 456.359375 256.285156 457.019531 256.699219 457.644531 C 257.109375 458.273438 257.578125 458.855469 258.105469 459.390625 C 258.632812 459.925781 259.203125 460.40625 259.820312 460.832031 C 260.441406 461.253906 261.09375 461.617188 261.785156 461.914062 C 262.472656 462.210938 263.183594 462.4375 263.917969 462.597656 C 264.652344 462.757812 265.394531 462.84375 266.144531 462.855469 L 312.429688 462.855469 C 313.3125 462.855469 314.195312 462.8125 315.074219 462.722656 C 315.953125 462.636719 316.828125 462.503906 317.695312 462.332031 C 318.558594 462.160156 319.417969 461.945312 320.261719 461.6875 C 321.109375 461.429688 321.9375 461.128906 322.753906 460.792969 C 323.570312 460.453125 324.371094 460.074219 325.148438 459.65625 C 325.929688 459.242188 326.683594 458.785156 327.421875 458.296875 C 328.15625 457.804688 328.863281 457.277344 329.546875 456.714844 C 330.230469 456.15625 330.882812 455.5625 331.507812 454.9375 C 332.132812 454.3125 332.726562 453.65625 333.289062 452.976562 C 333.847656 452.292969 334.375 451.582031 334.867188 450.847656 C 335.355469 450.113281 335.8125 449.355469 336.226562 448.578125 C 336.644531 447.796875 337.023438 447 337.363281 446.183594 C 337.699219 445.367188 338 444.535156 338.253906 443.6875 C 338.511719 442.84375 338.726562 441.988281 338.902344 441.121094 C 339.074219 440.253906 339.203125 439.378906 339.292969 438.5 C 339.378906 437.621094 339.421875 436.738281 339.425781 435.855469 L 339.425781 420.429688 C 339.421875 419.546875 339.378906 418.664062 339.292969 417.785156 C 339.203125 416.90625 339.074219 416.03125 338.902344 415.164062 C 338.726562 414.296875 338.511719 413.441406 338.253906 412.597656 C 338 411.75 337.699219 410.917969 337.363281 410.101562 C 337.023438 409.285156 336.644531 408.488281 336.226562 407.710938 C 335.8125 406.929688 335.355469 406.171875 334.867188 405.4375 C 334.375 404.703125 333.847656 403.992188 333.289062 403.3125 C 332.726562 402.628906 332.132812 401.972656 331.507812 401.347656 C 330.882812 400.722656 330.230469 400.128906 329.546875 399.570312 C 328.863281 399.007812 328.15625 398.480469 327.421875 397.992188 C 326.683594 397.5 325.929688 397.042969 325.148438 396.628906 C 324.371094 396.210938 323.570312 395.832031 322.753906 395.492188 C 321.9375 395.15625 321.109375 394.855469 320.261719 394.597656 C 319.417969 394.34375 318.558594 394.125 317.695312 393.953125 C 316.828125 393.78125 315.953125 393.648438 315.074219 393.5625 C 314.195312 393.472656 313.3125 393.429688 312.429688 393.429688 L 281.566406 393.429688 C 281.054688 393.429688 280.566406 393.328125 280.09375 393.132812 C 279.621094 392.9375 279.203125 392.65625 278.84375 392.296875 C 278.480469 391.933594 278.203125 391.515625 278.007812 391.046875 C 277.8125 390.574219 277.714844 390.082031 277.714844 389.570312 L 277.714844 374.144531 C 277.714844 373.632812 277.8125 373.140625 278.007812 372.667969 C 278.203125 372.195312 278.480469 371.78125 278.84375 371.417969 C 279.203125 371.054688 279.621094 370.777344 280.09375 370.582031 C 280.566406 370.386719 281.054688 370.285156 281.566406 370.285156 Z M 281.566406 370.285156 " fill-opacity="1" fill-rule="nonzero"/></svg>